<?xml version="1.0" encoding="utf-8"?>
<!-- Generator: Adobe Illustrator 21.0.2, SVG Export Plug-In . SVG Version: 6.00 Build 0)  -->
<svg version="1.1" id="Layer_1" xmlns="http://www.w3.org/2000/svg" xmlns:xlink="http://www.w3.org/1999/xlink" x="0px" y="0px"
	 width="40px" height="40px" viewBox="0 0 40 40" style="enable-background:new 0 0 40 40;" xml:space="preserve">
<style type="text/css">
	.st0{fill:#FFFFFF;}
</style>
<g>
	<path class="st0" d="M20,38.8c-4.8,0-9.5-0.7-14.1-2.2c-1.3-0.4-2.2-1.2-2.6-2.6c-3.1-9.4-3.1-18.7,0-28.1c0.4-1.3,1.2-2.1,2.6-2.6
		c9.4-3,18.8-3,28.2,0c1.4,0.5,2.3,1.3,2.7,2.7c3,9.4,3,18.7-0.1,28c-0.4,1.3-1.2,2.1-2.5,2.5C29.6,38.1,24.8,38.7,20,38.8z M20,2.8
		C15.4,2.9,10.9,3.5,6.6,5C5.7,5.3,5.2,5.7,5,6.6c-2.9,8.9-2.9,17.8,0,26.6c0.3,0.8,0.8,1.3,1.6,1.6c8.9,2.9,17.9,2.9,26.8,0
		c0.9-0.3,1.4-0.7,1.6-1.6c2.9-8.9,2.9-17.9-0.1-26.8c-0.2-0.6-0.9-1.3-1.5-1.5C29.1,3.4,24.6,2.9,20,2.8z"/>
</g>
<g>
	<path class="st0" d="M21.1,23.6c0.2-0.3,0.4-0.6,0.6-0.9c0.2-0.2,0.5-0.5,0.8-0.8l2.6-2.4l1.4,1.5L20,26.9L13.5,21l1.4-1.5l2.6,2.5
		c0.3,0.3,0.6,0.6,0.8,0.8c0.2,0.2,0.4,0.5,0.6,0.9V12.9h2.2V23.6z"/>
</g>
</svg>
