<?xml version="1.0" encoding="utf-8"?>
<!-- Generator: Adobe Illustrator 21.1.0, SVG Export Plug-In . SVG Version: 6.00 Build 0)  -->
<svg version="1.1" id="Layer_1" xmlns="http://www.w3.org/2000/svg" xmlns:xlink="http://www.w3.org/1999/xlink" x="0px" y="0px"
	 width="80px" height="86px" viewBox="0 0 80 86" style="enable-background:new 0 0 80 86;" xml:space="preserve">
<style type="text/css">
	.st0{fill:#FFFFFF;}
	.st1{fill-rule:evenodd;clip-rule:evenodd;fill:#FFFFFF;}
	.st2{fill:#FFFFFF;stroke:#FFFFFF;stroke-width:4;stroke-miterlimit:10;}
</style>
<path class="st0" d="M40,10.7c-9.5,0.2-18.8,1.4-27.8,4.4c-1.8,0.6-2.7,1.6-3.3,3.3c-5.9,18.3-5.9,36.8,0,55.1
	c0.6,1.7,1.5,2.7,3.3,3.3c18.4,5.9,36.9,5.9,55.4,0c1.8-0.6,2.8-1.5,3.4-3.2c5.9-18.4,6-36.9-0.1-55.3c-0.4-1.2-1.8-2.6-3.1-3
	C58.8,12,49.5,10.9,40,10.7z M40,85c-10-0.1-19.6-1.4-29.1-4.6c-2.7-0.9-4.4-2.5-5.3-5.2c-6.3-19.4-6.3-38.8,0-58.1
	c0.8-2.8,2.5-4.4,5.2-5.3C30.2,5.5,49.5,5.5,69,11.6c3,1,4.7,2.7,5.6,5.6c6.1,19.3,6.2,38.6-0.2,57.9c-0.9,2.7-2.5,4.2-5.1,5.1
	C59.8,83.6,49.9,85,40,85z"/>
<circle class="st1" cx="51" cy="55.6" r="5.3"/>
<circle class="st1" cx="29.4" cy="55.6" r="5.3"/>
<path class="st0" d="M56.4,1.3L45.3,6.6c0,0,0,0,0,0c-0.3-0.3-0.7-0.5-1.1-0.5h-8.4c-0.4,0-0.8,0.2-1.1,0.5l0,0L23.6,1.3
	c-1.9-0.9-4,0.5-4,2.5v14.4c0,2.1,2.2,3.4,4,2.5l11.1-5.3c0.3,0.3,0.6,0.5,1.1,0.5h8.4c0.4,0,0.8-0.2,1.1-0.5l11.1,5.3
	c1.9,0.9,4-0.5,4-2.5V3.8C60.4,1.7,58.2,0.4,56.4,1.3z M34.4,14.5L34.4,14.5C34.4,14.5,34.4,14.6,34.4,14.5
	C34.4,14.6,34.4,14.5,34.4,14.5z"/>
</svg>
