<svg version="1" xmlns="http://www.w3.org/2000/svg" width="666.667" height="666.667" viewBox="0 0 500.000000 500.000000"><path d="M219 2.7C175.1 4.8 121.5 14.3 76 28c-18.1 5.4-26.8 9.6-33.4 16.3-6.9 6.9-10.2 13.6-16 32.2C14.6 115.7 7 152.8 2.3 196c-2.5 23.1-2.5 87.2 0 110.5 4.6 41.9 12.7 81.9 24.3 119.2 5.5 17.7 8.1 23 14.6 29.9 9.1 9.7 16.6 13.3 44.9 21.4 84.4 24.4 185.4 29.2 273.4 12.9 37.5-6.9 78.2-19 90.2-26.8 11.8-7.7 16.6-15.4 23.8-38.7 11.8-38.1 19.7-76.4 24-116.9 2.2-20.3 3.1-70.5 1.6-92-3-44.9-10.2-86-22.7-130-12.8-44.8-19.2-50-80.9-65.4C338 5.8 277.9-.1 219 2.7zM286.5 19c42.5 3.2 79.7 9.8 120.9 21.6 22.6 6.5 30.5 10.3 38 18.5 7.1 7.6 9.5 12.9 16 35.5 9.5 33.2 16.5 68.5 20.3 102.4 2.6 23.6 2.6 84.4 0 108-3.8 34.4-10.4 67-20.3 101-6.7 22.5-10.6 31.3-17.2 37.9-6.2 6.2-13.2 9.8-29.7 15-80.6 25.9-172.2 31.7-261.4 16.5-29.7-5-71.4-16.1-85.1-22.6-7.8-3.8-16.7-12.3-20.4-19.6-4.9-9.6-16.2-50.2-21.5-77.2-6.7-33.9-9.1-57.6-9.8-94.7-.7-40.7 1.5-70.4 8.2-106.8 5.3-28.9 18.1-75.9 23.8-87 2.9-5.9 8.9-12.3 14.8-16.1 2.3-1.4 10.2-4.6 17.6-7 35.4-11.7 83.4-21.3 120.8-24.3 7.7-.6 15.6-1.3 17.5-1.5 8.7-.8 54.9-.5 67.5.4z"/><path d="M225.5 40.6c-2.2.2-10.5.9-18.5 1.4-38.2 2.8-79.2 10.5-113.5 21.1-21.5 6.7-26 10.9-32 30.4C30.3 194 29.4 295.7 58.6 398c8.8 30.6 10.9 32.9 37.5 40.9 101.2 30.3 204.4 30.2 307-.2 19.1-5.7 24.6-8.9 29.4-17.1 2.9-4.9 11.9-35.9 16.4-56.1 20.1-91.2 16.9-176.9-10.1-266.9-6.9-22.8-11.3-27.4-33.6-34.9-32.7-10.9-64.6-17.4-105.2-21.2-15.5-1.5-65.7-2.8-74.5-1.9zm-26.2 238.2c11.7 5.2 18.9 16.4 18.9 29.2 0 12.4-6.8 23.2-18 28.7-4.8 2.4-6.9 2.8-13.7 2.7-6.6 0-9-.5-13.7-2.8-21.5-10.3-24-41-4.5-54.5 9.1-6.2 21.5-7.5 31-3.3zm129.9.4c7 3.2 12.4 8.6 15.7 15.7 5.4 11.5 2.7 26.4-6.4 35.6-12.2 12.1-32.8 12.1-45 0-7.8-7.8-11.1-20.4-8.2-30.6 5.7-19.4 25.9-28.9 43.9-20.7z"/></svg>