<?xml version="1.0" encoding="utf-8"?>
<!-- Generator: Adobe Illustrator 21.0.2, SVG Export Plug-In . SVG Version: 6.00 Build 0)  -->
<svg version="1.1" id="Layer_1" xmlns="http://www.w3.org/2000/svg" xmlns:xlink="http://www.w3.org/1999/xlink" x="0px" y="0px"
	 width="80px" height="80px" viewBox="0 0 80 80" style="enable-background:new 0 0 80 80;" xml:space="preserve">
<style type="text/css">
	.st0{fill:#FFFFFF;}
</style>
<g>
	<path class="st0" d="M40,78.5c-9.9-0.1-19.5-1.4-28.9-4.6c-2.7-0.9-4.4-2.5-5.3-5.2c-6.3-19.3-6.3-38.5,0-57.7
		C6.6,8.2,8.3,6.6,11,5.7c19.3-6.2,38.5-6.2,57.8-0.1c3,1,4.7,2.7,5.6,5.6c6.1,19.2,6.2,38.3-0.2,57.5c-0.9,2.7-2.5,4.2-5.1,5.1
		C59.7,77.1,49.9,78.5,40,78.5z M40,4.7c-9.4,0.2-18.7,1.4-27.6,4.4c-1.8,0.6-2.7,1.6-3.3,3.3c-5.9,18.2-5.9,36.5,0,54.7
		c0.6,1.7,1.5,2.7,3.3,3.3c18.3,5.9,36.6,5.9,55,0c1.8-0.6,2.8-1.5,3.4-3.2c5.9-18.3,6-36.6-0.1-54.9c-0.4-1.2-1.8-2.6-3.1-3
		C58.7,6,49.5,4.9,40,4.7z"/>
	<circle class="st0" cx="51" cy="39.8" r="5.3"/>
	<circle class="st0" cx="29.5" cy="39.8" r="5.3"/>
</g>
</svg>
