<svg id="Layer_1" xmlns="http://www.w3.org/2000/svg" width="40" height="40" viewBox="0 0 40 40"><style>.st0{fill:#fff}</style><path class="st0" d="M20 38.8c-4.8 0-9.5-.7-14.1-2.2-1.3-.4-2.2-1.2-2.6-2.6C.2 24.6.2 15.3 3.3 5.9c.4-1.3 1.2-2.1 2.6-2.6 9.4-3 18.8-3 28.2 0 1.4.5 2.3 1.3 2.7 2.7 3 9.4 3 18.7-.1 28-.4 1.3-1.2 2.1-2.5 2.5-4.6 1.6-9.4 2.2-14.2 2.3zm0-36c-4.6.1-9.1.7-13.4 2.2-.9.3-1.4.7-1.6 1.6-2.9 8.9-2.9 17.8 0 26.6.3.8.8 1.3 1.6 1.6 8.9 2.9 17.9 2.9 26.8 0 .9-.3 1.4-.7 1.6-1.6 2.9-8.9 2.9-17.9-.1-26.8-.2-.6-.9-1.3-1.5-1.5-4.3-1.5-8.8-2-13.4-2.1z"/><path class="st0" d="M21.1 23.6l.6-.9.8-.8 2.6-2.4 1.4 1.5-6.5 5.9-6.5-5.9 1.4-1.5 2.6 2.5.8.8c.2.2.4.5.6.9V12.9h2.2v10.7z"/></svg>