<svg id="Layer_1" xmlns="http://www.w3.org/2000/svg" width="180" height="75" viewBox="0 0 180 75"><style>.st0,.st1{fill:#fff}.st1{fill-rule:evenodd;clip-rule:evenodd}</style><path class="st0" d="M90 19.3c-6.9.1-13.8 1-20.4 3.2-1.3.4-2 1.2-2.4 2.4-4.4 13.4-4.4 26.9 0 40.4.4 1.3 1.1 2 2.4 2.4 13.5 4.4 27 4.4 40.6 0 1.3-.4 2.1-1.1 2.5-2.4 4.4-13.5 4.4-27-.1-40.5-.3-.9-1.3-1.9-2.3-2.2-6.5-2.3-13.3-3.1-20.3-3.3zm0 54.5c-7.3-.1-14.4-1-21.3-3.4-2-.7-3.2-1.8-3.9-3.8-4.6-14.2-4.6-28.4 0-42.6.6-2.1 1.8-3.2 3.8-3.9 14.2-4.6 28.4-4.6 42.6-.1 2.2.7 3.5 2 4.1 4.1 4.5 14.2 4.6 28.3-.1 42.4-.7 2-1.8 3.1-3.8 3.8-6.9 2.4-14.1 3.5-21.4 3.5z"/><circle class="st1" cx="98.1" cy="52.2" r="3.9"/><circle class="st1" cx="82.2" cy="52.2" r="3.9"/><path class="st0" d="M29.7 3.7c-6.9.1-13.8 1-20.4 3.2-1.3.5-1.9 1.2-2.4 2.5-4.4 13.4-4.4 26.9 0 40.4.4 1.3 1.1 2 2.4 2.4 13.5 4.4 27 4.4 40.6 0 1.3-.4 2.1-1.1 2.5-2.4 4.4-13.5 4.4-27-.1-40.5C52 8.4 51 7.4 50 7.1c-6.5-2.4-13.3-3.3-20.3-3.4zm0 54.5c-7.3-.1-14.4-1-21.3-3.4-2-.7-3.2-1.8-3.9-3.8-4.6-14.2-4.6-28.4 0-42.6.6-2.1 1.8-3.2 3.8-3.9C22.6-.1 36.7-.1 51 4.4c2.2.7 3.5 2 4.1 4.1 4.5 14.2 4.6 28.3-.1 42.4-.7 2-1.8 3.1-3.8 3.8-6.9 2.4-14.2 3.5-21.5 3.5z"/><path class="st0" d="M37.8 40.4c-2.1 0-3.9-1.7-3.9-3.9 0-2.1 1.7-3.9 3.9-3.9 2.1 0 3.9 1.7 3.9 3.9s-1.8 3.9-3.9 3.9zm-15.8 0c-2.1 0-3.9-1.7-3.9-3.9 0-2.1 1.7-3.9 3.9-3.9 2.1 0 3.9 1.7 3.9 3.9-.1 2.2-1.8 3.9-3.9 3.9zm23.2-11.2l-1.2-.3c-.5-.1-1.1-.1-1.7-.2-8.4-1-16.8-1-25.2 0-.6.1-1.2.1-1.8.2-.5 0-.8.1-1.1.2-.7.2-1.2.5-1.5.9-1.8 2.4-2.5 4.8-2.3 7.2.1.9.3 1.8.7 2.7.4 1 .9 1.9 1.6 2.9.5.6 1.3 1 2.6 1.1 4.7.7 9.4 1 14.3 1s9.8-.3 14.4-1c1.3-.2 2.1-.5 2.6-1.1.7-1 1.3-1.9 1.6-2.9.4-.9.6-1.8.7-2.7.2-2.4-.5-4.7-2.2-7.2-.3-.2-.8-.6-1.5-.8zM150.2 3.7c-6.9.1-13.8 1-20.4 3.2-1.3.4-2 1.2-2.4 2.4-4.4 13.4-4.4 26.9 0 40.4.4 1.3 1.1 2 2.4 2.4 13.5 4.4 27 4.4 40.6 0 1.3-.4 2.1-1.1 2.5-2.4 4.4-13.5 4.4-27-.1-40.5-.3-.9-1.3-1.9-2.3-2.2-6.5-2.3-13.3-3.2-20.3-3.3zm0 54.5c-7.3-.1-14.4-1-21.3-3.4-2-.7-3.2-1.8-3.9-3.8-4.6-14.2-4.6-28.4 0-42.6.6-2.1 1.8-3.2 3.8-3.9 14.2-4.6 28.4-4.6 42.6-.1 2.2.7 3.5 2 4.1 4.1 4.5 14.2 4.6 28.3-.1 42.4-.7 2-1.8 3.1-3.8 3.8-6.8 2.4-14.1 3.5-21.4 3.5z"/><path class="st1" d="M165.7 29.2l-1.2-.3c-.5-.1-1.1-.1-1.7-.2-8.4-1-16.8-1-25.2 0-.6.1-1.2.1-1.8.2-.5 0-.8.1-1.1.2-.7.2-1.2.5-1.5.9-1.8 2.4-2.5 4.8-2.3 7.2.1.9.3 1.8.7 2.7.4 1 .9 1.9 1.6 2.9.5.6 1.3 1 2.6 1.1 4.7.7 9.4 1 14.3 1s9.8-.3 14.4-1c1.3-.2 2.1-.5 2.6-1.1.7-1 1.3-1.9 1.6-2.9.4-.9.6-1.8.7-2.7.2-2.4-.5-4.7-2.2-7.2-.2-.2-.7-.6-1.5-.8z"/></svg>