<?xml version="1.0" encoding="utf-8"?>
<!-- Generator: Adobe Illustrator 21.0.2, SVG Export Plug-In . SVG Version: 6.00 Build 0)  -->
<svg version="1.1" id="Layer_1" xmlns="http://www.w3.org/2000/svg" xmlns:xlink="http://www.w3.org/1999/xlink" x="0px" y="0px"
	 width="400px" height="140px" viewBox="0 0 400 140" style="enable-background:new 0 0 400 140;" xml:space="preserve">
<style type="text/css">
	.st0{fill:#FFFFFF;}
</style>
<g>
	<path class="st0" d="M390.9,19.2c-1.6-5.1-4.6-8.2-9.9-9.9C347.1-1.6,313.3-1.6,279.4,9.3c-4.8,1.6-7.7,4.4-9.3,9.3
		c-2,6-3.6,12.1-4.9,18.1c-1.2-5.9-2.8-11.8-4.7-17.7c-1.6-5.1-4.6-8.2-9.9-9.9C216.8-1.8,182.9-1.7,149,9.2
		c-4.8,1.6-7.7,4.4-9.3,9.3c-2,6.1-3.6,12.1-4.9,18.2c-1.2-5.8-2.8-11.7-4.6-17.5c-1.6-5.1-4.6-8.2-9.9-9.9
		C86.4-1.6,52.5-1.6,18.6,9.3c-4.8,1.6-7.7,4.4-9.3,9.3c-11.1,33.9-11.1,67.7,0,101.6c1.6,4.9,4.6,7.6,9.4,9.2
		c16.5,5.5,33.5,8,50.8,8.1c17.5-0.1,34.6-2.6,51.3-8.2c4.6-1.6,7.5-4.3,9-9c2-6.1,3.7-12.3,5-18.4c1.3,6,2.9,12.1,4.9,18.1
		c1.6,4.9,4.6,7.6,9.4,9.2c16.5,5.5,33.5,8,50.8,8.1c17.5-0.1,34.6-2.6,51.3-8.2c4.6-1.6,7.5-4.3,9-9c2-6.1,3.7-12.2,4.9-18.3
		c1.3,6.1,2.9,12.2,4.9,18.3c1.6,4.9,4.6,7.6,9.4,9.2c16.5,5.5,33.5,8,50.8,8.1c17.5-0.1,34.6-2.6,51.3-8.2c4.6-1.6,7.5-4.3,9-9
		C401.8,86.6,401.7,52.9,390.9,19.2z M123.9,117.6c-1,3.1-2.8,4.7-5.9,5.7c-32.3,10.3-64.5,10.3-96.7,0c-3.1-1-4.9-2.7-5.9-5.8
		C4.9,85.4,5,53.4,15.3,21.3c1-3,2.6-4.8,5.8-5.9c15.8-5.3,32-7.5,48.6-7.8c16.6,0.3,32.9,2.3,48.5,8.1c2.2,0.8,4.7,3.2,5.4,5.4
		c4.6,13.7,7.2,27.5,7.9,41.3c-0.2,4.7-0.2,9.4,0,14.1C130.9,90.1,128.3,103.9,123.9,117.6z M254.2,117.5c-1,3.1-2.8,4.7-5.9,5.7
		c-32.3,10.3-64.5,10.3-96.7,0c-3.1-1-4.9-2.7-5.9-5.8c-4.4-13.7-7-27.4-7.6-41.2c0.2-4.6,0.2-9.2,0-13.7
		c0.6-13.8,3.2-27.6,7.6-41.3c1-3,2.6-4.8,5.8-5.9c15.8-5.3,32-7.5,48.6-7.8c16.6,0.3,32.9,2.3,48.5,8.1c2.2,0.8,4.7,3.2,5.4,5.4
		c4.6,13.8,7.3,27.6,7.9,41.5c-0.2,4.6-0.2,9.2,0,13.9C261.3,90,258.7,103.8,254.2,117.5z M384.6,117.6c-1,3.1-2.8,4.7-5.9,5.7
		c-32.3,10.3-64.5,10.3-96.7,0c-3.1-1-4.9-2.7-5.9-5.8c-4.5-13.8-7-27.6-7.6-41.4c0.2-4.5,0.2-9,0-13.5c0.6-13.8,3.2-27.6,7.6-41.3
		c1-3,2.6-4.8,5.8-5.9c15.8-5.3,32-7.5,48.6-7.8c16.6,0.3,32.9,2.3,48.5,8.1c2.2,0.8,4.7,3.2,5.4,5.4
		C395.2,53.2,395.1,85.4,384.6,117.6z"/>
	<path class="st0" d="M364.5,51.2c-22.9-3.3-45.7-3.3-68.5,0c-3.3,0.5-5.2,1.3-6.3,2.8c-7.5,10.2-7.5,20.4,0,30.6
		c1.1,1.5,3.1,2.3,6.3,2.8c11.1,1.7,22.6,2.4,34.3,2.4c11.8,0,23.3-0.8,34.6-2.5c3.1-0.5,5-1.3,6.1-2.7c7.5-10.2,7.5-20.3,0.2-30.5
		C370.1,52.6,368.1,51.7,364.5,51.2z"/>
	<circle class="st0" cx="89" cy="69.4" r="9.2"/>
	<circle class="st0" cx="51.1" cy="69.4" r="9.2"/>
	<path class="st0" d="M234.1,51.1c-22.9-3.3-45.7-3.3-68.5,0c-3.3,0.5-5.2,1.3-6.3,2.8c-7.5,10.2-7.5,20.4,0,30.6
		c1.1,1.5,3.1,2.3,6.3,2.8c11.1,1.7,22.6,2.4,34.3,2.4c11.8,0,23.3-0.8,34.6-2.5c3.1-0.5,5-1.3,6.1-2.7c7.5-10.2,7.5-20.3,0.2-30.5
		C239.7,52.5,237.7,51.6,234.1,51.1z M181.5,78.5c-5.1,0-9.2-4.1-9.2-9.2c0-5.1,4.1-9.2,9.2-9.2c5.1,0,9.2,4.1,9.2,9.2
		C190.7,74.4,186.6,78.5,181.5,78.5z M219.4,78.5c-5.1,0-9.2-4.1-9.2-9.2c0-5.1,4.1-9.2,9.2-9.2c5.1,0,9.2,4.1,9.2,9.2
		C228.7,74.4,224.5,78.5,219.4,78.5z"/>
</g>
</svg>
