<svg id="Layer_1" xmlns="http://www.w3.org/2000/svg" width="140" height="400" viewBox="0 0 140 400"><style>.st0{fill:#fff}</style><path class="st0" d="M35.3 312.6c-3.3.5-5.2 1.3-6.3 2.8-7.5 10.2-7.5 20.4 0 30.7 1.1 1.5 3.1 2.3 6.3 2.8 11.2 1.7 22.6 2.4 34.3 2.4 11.8 0 23.4-.8 34.6-2.5 3.1-.5 5.1-1.3 6.1-2.7 7.5-10.2 7.5-20.4.2-30.6-1.1-1.6-3.1-2.5-6.7-3-22.7-3.3-45.6-3.3-68.5.1z"/><circle class="st0" cx="89.2" cy="69.5" r="9.3"/><circle class="st0" cx="51.2" cy="69.5" r="9.3"/><path class="st0" d="M130.2 251.1c11.1-33.8 11.1-67.5.3-101.4-1.6-5.1-4.6-8.3-9.9-9.9-6.5-2.1-13-3.8-19.6-5.1 6.8-1.3 13.5-3 20.1-5.3 4.6-1.6 7.5-4.3 9-9 11.1-33.8 11.1-67.5.3-101.4-1.6-5.1-4.6-8.3-9.9-9.9C86.6-1.8 52.6-1.7 18.7 9.3c-4.8 1.6-7.8 4.4-9.4 9.3-11.1 34-11.1 67.9 0 101.8 1.6 4.9 4.6 7.7 9.4 9.3 6.5 2.2 13.2 3.9 19.8 5.2-6.6 1.3-13.3 3-19.9 5.2-4.8 1.6-7.8 4.4-9.4 9.3-11.1 34-11.1 67.9 0 101.8 1.6 4.9 4.6 7.7 9.4 9.3 6.5 2.2 13.2 3.9 19.8 5.2-6.6 1.3-13.3 3-19.9 5.2-4.8 1.6-7.8 4.4-9.4 9.3C-2 314.2-2 348.1 9.1 382c1.6 4.9 4.6 7.7 9.4 9.3 16.6 5.5 33.6 8 51 8.1 17.6-.1 34.7-2.6 51.4-8.2 4.6-1.6 7.5-4.3 9-9 11.1-33.8 11.1-67.5.3-101.4-1.6-5.1-4.6-8.3-9.9-9.9-6.5-2.1-13-3.8-19.6-5.1 6.8-1.3 13.5-3 20.1-5.3 4.9-1.9 7.8-4.7 9.4-9.4zm-109-127.6c-3.1-1-4.9-2.7-5.9-5.8C5 85.5 5 53.4 15.3 21.2c1-3 2.7-4.8 5.8-5.9C37 10 53.2 7.8 69.8 7.5c16.6.3 33 2.3 48.6 8.1 2.2.8 4.7 3.2 5.5 5.4 10.8 32.2 10.7 64.5.2 96.8-1 3.1-2.9 4.7-6 5.7-32.3 10.3-64.5 10.3-96.9 0zm97.3 153.4c2.2.8 4.7 3.2 5.5 5.4 10.8 32.2 10.7 64.5.2 96.8-1 3.1-2.9 4.7-6 5.7-32.3 10.3-64.6 10.3-97 0-3.1-1-4.9-2.7-5.9-5.8-10.3-32.2-10.3-64.3 0-96.5 1-3 2.7-4.8 5.8-5.9 15.8-5.4 32.1-7.5 48.7-7.8 16.6.4 33 2.3 48.7 8.1zm-97.3-22.8c-3.1-1-4.9-2.7-5.9-5.8C5 216.2 5 184 15.3 151.9c1-3 2.7-4.8 5.8-5.9 15.8-5.4 32.1-7.5 48.7-7.8 16.6.3 33 2.3 48.6 8.1 2.2.8 4.7 3.2 5.5 5.4 10.8 32.2 10.7 64.5.2 96.8-1 3.1-2.9 4.7-6 5.7-32.3 10.3-64.5 10.3-96.9-.1z"/><path class="st0" d="M104 181.9c-22.9-3.3-45.8-3.3-68.7 0-3.3.5-5.2 1.3-6.3 2.8-7.5 10.2-7.5 20.4 0 30.7 1.1 1.5 3.1 2.3 6.3 2.8 11.2 1.7 22.6 2.4 34.3 2.4 11.8 0 23.4-.8 34.6-2.5 3.1-.5 5.1-1.3 6.1-2.7 7.5-10.2 7.5-20.4.2-30.6-.9-1.5-3-2.4-6.5-2.9zm-52.8 27.5c-5.1 0-9.3-4.1-9.3-9.3s4.1-9.3 9.3-9.3 9.3 4.1 9.3 9.3-4.1 9.3-9.3 9.3zm38 0c-5.1 0-9.3-4.1-9.3-9.3s4.1-9.3 9.3-9.3 9.3 4.1 9.3 9.3-4.1 9.3-9.3 9.3z"/></svg>