<svg id="Layer_1" xmlns="http://www.w3.org/2000/svg" width="302" height="175" viewBox="0 0 302 175"><style>.st0{fill:#fff}</style><path class="st0" d="M293.6 17.6c-1.5-4.7-4.2-7.5-9-9.1-31.1-10-62-9.9-93.1.1-4.4 1.4-7.1 4-8.5 8.5-3.7 11.2-6 22.4-7 33.5-16.7-2.9-33.3-2.9-49.9 0-1-11-3.3-22-6.8-33-1.5-4.7-4.2-7.5-9-9.1-31.1-10-62-9.9-93.1.1-4.4 1.4-7.1 4-8.5 8.5-10.1 31-10.1 62 0 93 1.5 4.5 4.2 7 8.6 8.5 15.1 5.1 30.7 7.3 46.5 7.4 8.4 0 16.8-.7 25-2 1 11.2 3.4 22.4 7 33.6 1.5 4.5 4.2 7 8.6 8.5 15.1 5.1 30.7 7.3 46.5 7.4 16-.1 31.7-2.3 47-7.5 4.2-1.4 6.8-4 8.3-8.2 3.7-11.2 6.1-22.5 7.1-33.7 8.2 1.3 16.5 2 24.9 2.1 16-.1 31.7-2.3 47-7.5 4.2-1.4 6.8-4 8.3-8.2 10-31.2 10-62 .1-92.9zM19.5 112.9c-2.9-.9-4.5-2.5-5.4-5.3-9.5-29.4-9.5-58.7 0-88.1.9-2.8 2.4-4.4 5.3-5.4C33.8 9.2 48.7 7.2 63.9 7c15.1.2 30.1 2 44.4 7.3 2 .8 4.3 2.9 5 4.9 3.6 10.8 5.9 21.6 6.9 32.5-5.3 1.1-10.5 2.5-15.8 4.2-4.4 1.4-7.1 4-8.5 8.5-5.8 17.8-8.3 35.6-7.4 53.4-23.1 4-46 2.4-69-4.9zm156.1-56.4c2 .3 4 .7 5.9 1.2 4.7 1 9.4 2.4 14 4.1.2.1.3.1.5.2 1.9.9 3.9 2.8 4.5 4.7 1.4 4.3 2.6 8.5 3.7 12.8 2.9 12.4 4.1 24.8 3.6 37.2-.1 2-.2 4.1-.4 6.1-.9 10.8-3.2 21.6-6.7 32.4-.9 2.9-2.6 4.3-5.4 5.2-29.5 9.4-59 9.4-88.6 0-2.9-.9-4.5-2.5-5.4-5.3-3.5-10.8-5.7-21.5-6.6-32.3-.2-2-.3-4.1-.4-6.1-.7-16.6 1.6-33.1 7-49.7.9-2.8 2.4-4.4 5.3-5.4 4.6-1.6 9.3-2.8 14-3.8 2-.4 3.9-.8 5.9-1.1m161.3 51c-.9 2.9-2.6 4.3-5.4 5.2-22.9 7.3-45.8 8.9-68.8 4.9.6-12.4-.4-24.8-3.1-37.2 9 1.2 18.2 1.7 27.6 1.7 10.8 0 21.4-.7 31.6-2.3 2.8-.4 4.6-1.2 5.6-2.5 6.9-9.3 6.8-18.6.2-27.9-1-1.4-2.9-2.3-6.1-2.7-20.9-3-41.8-3-62.7 0-3 .4-4.8 1.2-5.8 2.6-1.6 2.1-2.7 4.3-3.6 6.4-5.2-1.7-10.3-3-15.5-4.1.9-10.7 3.1-21.5 6.6-32.2.9-2.8 2.4-4.4 5.3-5.4 14.4-4.9 29.3-6.9 44.5-7.1 15.2.3 30.1 2.1 44.4 7.4 2 .8 4.3 2.9 5 4.9 9.9 29.3 9.8 58.8.2 88.3z"/><circle class="st0" cx="81.6" cy="63.5" r="8.5"/><circle class="st0" cx="46.9" cy="63.5" r="8.5"/><path class="st0" d="M185 94.8c-.8-.2-1.7-.4-2.7-.6-1.2-.2-2.4-.3-3.7-.5-18.4-2.3-36.8-2.3-55.2 0-1.3.2-2.6.3-3.9.5-1 .1-1.8.3-2.5.5-1.5.5-2.6 1.1-3.2 2-3.9 5.3-5.5 10.5-5 15.8.2 2 .7 3.9 1.5 5.9.8 2.1 2 4.2 3.6 6.3 1 1.3 2.8 2.1 5.8 2.5 10.2 1.5 20.7 2.2 31.4 2.2 10.8 0 21.4-.7 31.6-2.3 2.8-.4 4.6-1.2 5.6-2.5 1.6-2.1 2.8-4.2 3.6-6.4.8-2 1.3-3.9 1.5-5.9.5-5.2-1.2-10.4-4.9-15.7-.8-.6-1.9-1.3-3.5-1.8zm-50.9 24.6c-4.7 0-8.5-3.8-8.5-8.5s3.8-8.5 8.5-8.5 8.5 3.8 8.5 8.5c-.1 4.7-3.9 8.5-8.5 8.5zm34.7 0c-4.7 0-8.5-3.8-8.5-8.5s3.8-8.5 8.5-8.5 8.5 3.8 8.5 8.5c-.1 4.7-3.9 8.5-8.5 8.5z"/></svg>