<?xml version="1.0" encoding="utf-8"?>
<!-- Generator: Adobe Illustrator 21.0.2, SVG Export Plug-In . SVG Version: 6.00 Build 0)  -->
<svg version="1.1" id="Layer_1" xmlns="http://www.w3.org/2000/svg" xmlns:xlink="http://www.w3.org/1999/xlink" x="0px" y="0px"
	 width="140px" height="400px" viewBox="0 0 140 400" style="enable-background:new 0 0 140 400;" xml:space="preserve">
<style type="text/css">
	.st0{fill:#FFFFFF;}
</style>
<g>
	<path class="st0" d="M35.3,312.6c-3.3,0.5-5.2,1.3-6.3,2.8c-7.5,10.2-7.5,20.4,0,30.7c1.1,1.5,3.1,2.3,6.3,2.8
		c11.2,1.7,22.6,2.4,34.3,2.4c11.8,0,23.4-0.8,34.6-2.5c3.1-0.5,5.1-1.3,6.1-2.7c7.5-10.2,7.5-20.4,0.2-30.6c-1.1-1.6-3.1-2.5-6.7-3
		C81.1,309.2,58.2,309.2,35.3,312.6z"/>
	<circle class="st0" cx="89.2" cy="69.5" r="9.3"/>
	<circle class="st0" cx="51.2" cy="69.5" r="9.3"/>
	<path class="st0" d="M130.2,251.1c11.1-33.8,11.1-67.5,0.3-101.4c-1.6-5.1-4.6-8.3-9.9-9.9c-6.5-2.1-13-3.8-19.6-5.1
		c6.8-1.3,13.5-3,20.1-5.3c4.6-1.6,7.5-4.3,9-9c11.1-33.8,11.1-67.5,0.3-101.4c-1.6-5.1-4.6-8.3-9.9-9.9C86.6-1.8,52.6-1.7,18.7,9.3
		c-4.8,1.6-7.8,4.4-9.4,9.3c-11.1,34-11.1,67.9,0,101.8c1.6,4.9,4.6,7.7,9.4,9.3c6.5,2.2,13.2,3.9,19.8,5.2
		c-6.6,1.3-13.3,3-19.9,5.2c-4.8,1.6-7.8,4.4-9.4,9.3c-11.1,34-11.1,67.9,0,101.8c1.6,4.9,4.6,7.7,9.4,9.3
		c6.5,2.2,13.2,3.9,19.8,5.2c-6.6,1.3-13.3,3-19.9,5.2c-4.8,1.6-7.8,4.4-9.4,9.3c-11.1,34-11.1,67.9,0,101.8
		c1.6,4.9,4.6,7.7,9.4,9.3c16.6,5.5,33.6,8,51,8.1c17.6-0.1,34.7-2.6,51.4-8.2c4.6-1.6,7.5-4.3,9-9c11.1-33.8,11.1-67.5,0.3-101.4
		c-1.6-5.1-4.6-8.3-9.9-9.9c-6.5-2.1-13-3.8-19.6-5.1c6.8-1.3,13.5-3,20.1-5.3C125.7,258.6,128.6,255.8,130.2,251.1z M21.2,123.5
		c-3.1-1-4.9-2.7-5.9-5.8C5,85.5,5,53.4,15.3,21.2c1-3,2.7-4.8,5.8-5.9C37,10,53.2,7.8,69.8,7.5c16.6,0.3,33,2.3,48.6,8.1
		c2.2,0.8,4.7,3.2,5.5,5.4c10.8,32.2,10.7,64.5,0.2,96.8c-1,3.1-2.9,4.7-6,5.7C85.8,133.8,53.6,133.8,21.2,123.5z M118.5,276.9
		c2.2,0.8,4.7,3.2,5.5,5.4c10.8,32.2,10.7,64.5,0.2,96.8c-1,3.1-2.9,4.7-6,5.7c-32.3,10.3-64.6,10.3-97,0c-3.1-1-4.9-2.7-5.9-5.8
		C5,346.8,5,314.7,15.3,282.5c1-3,2.7-4.8,5.8-5.9c15.8-5.4,32.1-7.5,48.7-7.8C86.4,269.2,102.8,271.1,118.5,276.9z M21.2,254.1
		c-3.1-1-4.9-2.7-5.9-5.8C5,216.2,5,184,15.3,151.9c1-3,2.7-4.8,5.8-5.9c15.8-5.4,32.1-7.5,48.7-7.8c16.6,0.3,33,2.3,48.6,8.1
		c2.2,0.8,4.7,3.2,5.5,5.4c10.8,32.2,10.7,64.5,0.2,96.8c-1,3.1-2.9,4.7-6,5.7C85.8,264.5,53.6,264.5,21.2,254.1z"/>
	<path class="st0" d="M104,181.9c-22.9-3.3-45.8-3.3-68.7,0c-3.3,0.5-5.2,1.3-6.3,2.8c-7.5,10.2-7.5,20.4,0,30.7
		c1.1,1.5,3.1,2.3,6.3,2.8c11.2,1.7,22.6,2.4,34.3,2.4c11.8,0,23.4-0.8,34.6-2.5c3.1-0.5,5.1-1.3,6.1-2.7
		c7.5-10.2,7.5-20.4,0.2-30.6C109.6,183.3,107.5,182.4,104,181.9z M51.2,209.4c-5.1,0-9.3-4.1-9.3-9.3s4.1-9.3,9.3-9.3
		s9.3,4.1,9.3,9.3S56.4,209.4,51.2,209.4z M89.2,209.4c-5.1,0-9.3-4.1-9.3-9.3s4.1-9.3,9.3-9.3s9.3,4.1,9.3,9.3
		S94.4,209.4,89.2,209.4z"/>
</g>
</svg>
