<?xml version="1.0" encoding="utf-8"?>
<!-- Generator: Adobe Illustrator 21.1.0, SVG Export Plug-In . SVG Version: 6.00 Build 0)  -->
<svg version="1.1" id="Layer_1" xmlns="http://www.w3.org/2000/svg" xmlns:xlink="http://www.w3.org/1999/xlink" x="0px" y="0px"
	 width="180px" height="57px" viewBox="0 0 180 57" style="enable-background:new 0 0 180 57;" xml:space="preserve">
<style type="text/css">
	.st0{fill:#FFFFFF;}
</style>
<g>
	<path class="st0" d="M110.5,4.3C96.8-0.1,83.1-0.1,69.3,4.3c-1.9,0.6-3.1,1.8-3.7,3.8c-4.5,13.7-4.5,27.4,0,41.2
		c0.6,1.9,1.9,3.1,3.8,3.7c6.7,2.3,13.6,3.2,20.6,3.3c7.1,0,14.1-1,20.8-3.4c1.9-0.6,3-1.7,3.6-3.6c4.6-13.7,4.5-27.3,0.1-41
		C113.9,6.2,112.7,5,110.5,4.3z M112,48.2c-0.4,1.2-1.1,1.9-2.4,2.3c-13.1,4.2-26.2,4.2-39.3,0c-1.3-0.4-1.9-1.1-2.4-2.4
		c-4.2-13-4.2-26.1,0-39c0.4-1.2,1.1-1.9,2.4-2.4c6.4-2.1,13-3,19.7-3.1c6.8,0.1,13.3,0.9,19.7,3.3c0.9,0.3,1.9,1.3,2.2,2.1
		C116.2,22.1,116.2,35.2,112,48.2z"/>
	<circle class="st0" cx="97.8" cy="35.4" r="3.8"/>
	<circle class="st0" cx="82.5" cy="35.4" r="3.8"/>
	<path class="st0" d="M49.3,4.3C35.6-0.1,21.9-0.1,8.1,4.3C6.2,5,4.9,6.1,4.4,8.1c-4.5,13.7-4.5,27.4,0,41.2C5,51.2,6.2,52.4,8.2,53
		c6.7,2.3,13.6,3.2,20.6,3.3c7.1,0,14.1-1,20.8-3.4c1.9-0.6,3-1.7,3.6-3.6c4.6-13.7,4.5-27.3,0.1-41C52.7,6.2,51.5,5,49.3,4.3z
		 M50.8,48.2c-0.4,1.2-1.1,1.9-2.4,2.3c-13.1,4.2-26.2,4.2-39.3,0c-1.3-0.4-1.9-1.1-2.4-2.4c-4.2-13-4.2-26.1,0-39
		c0.4-1.2,1.1-1.9,2.4-2.4c6.4-2.1,13-3,19.7-3.1c6.8,0.1,13.3,0.9,19.7,3.3c0.9,0.3,1.9,1.3,2.2,2.1C55,22.1,55,35.2,50.8,48.2z"/>
	<path class="st0" d="M43.8,28.3c-0.4-0.1-0.8-0.2-1.2-0.3c-0.5-0.1-1.1-0.1-1.6-0.2c-8.1-1-16.2-1-24.4,0c-0.6,0.1-1.1,0.1-1.7,0.2
		c-0.4,0-0.8,0.1-1.1,0.2c-0.7,0.2-1.1,0.5-1.4,0.9c-1.7,2.3-2.4,4.6-2.2,7c0.1,0.9,0.3,1.7,0.7,2.6c0.4,0.9,0.9,1.9,1.6,2.8
		c0.4,0.6,1.2,0.9,2.6,1.1c4.5,0.7,9.1,1,13.9,1c4.8,0,9.4-0.3,13.9-1c1.2-0.2,2-0.5,2.5-1.1c0.7-0.9,1.2-1.9,1.6-2.8
		c0.4-0.9,0.6-1.7,0.7-2.6c0.2-2.3-0.5-4.6-2.2-6.9C45,28.8,44.5,28.5,43.8,28.3z M21.3,39.2c-2.1,0-3.8-1.7-3.8-3.8
		s1.7-3.8,3.8-3.8s3.8,1.7,3.8,3.8C25,37.5,23.3,39.2,21.3,39.2z M36.6,39.2L36.6,39.2c-2.1,0-3.8-1.7-3.8-3.8s1.7-3.8,3.8-3.8h0
		c2.1,0,3.7,1.7,3.7,3.8C40.3,37.5,38.7,39.1,36.6,39.2z"/>
	<path class="st0" d="M175.7,8.3c-0.6-2.1-1.9-3.3-4-4c-13.8-4.4-27.5-4.4-41.3,0.1c-1.9,0.6-3.1,1.8-3.7,3.8
		c-4.5,13.7-4.5,27.4,0,41.2c0.6,1.9,1.9,3.1,3.8,3.7c6.7,2.3,13.6,3.2,20.6,3.3c7.1,0,14.1-1,20.8-3.4c1.9-0.6,3-1.7,3.6-3.6
		C180.2,35.6,180.1,22,175.7,8.3z M173.2,48.2c-0.4,1.2-1.1,1.9-2.4,2.3c-13.1,4.2-26.2,4.2-39.3,0c-1.3-0.4-1.9-1.1-2.4-2.4
		c-4.2-13-4.2-26.1,0-39c0.4-1.2,1.1-1.9,2.4-2.4c6.4-2.1,13-3,19.7-3.1c6.8,0.1,13.3,0.9,19.7,3.3c0.9,0.3,1.9,1.3,2.2,2.1
		C177.4,22.1,177.4,35.2,173.2,48.2z"/>
	<path class="st0" d="M166.2,28.3c-0.4-0.1-0.8-0.2-1.2-0.3c-0.5-0.1-1.1-0.1-1.6-0.2c-8.1-1-16.2-1-24.4,0
		c-0.6,0.1-1.1,0.1-1.7,0.2c-0.4,0-0.8,0.1-1.1,0.2c-0.7,0.2-1.1,0.5-1.4,0.9c-1.7,2.3-2.4,4.6-2.2,7c0.1,0.9,0.3,1.7,0.7,2.6
		c0.4,0.9,0.9,1.9,1.6,2.8c0.4,0.6,1.2,0.9,2.6,1.1c4.5,0.7,9.1,1,13.9,1c4.8,0,9.4-0.3,14-1c1.2-0.2,2-0.5,2.5-1.1
		c0.7-0.9,1.2-1.9,1.6-2.8c0.4-0.9,0.6-1.7,0.7-2.6c0.2-2.3-0.5-4.6-2.2-6.9C167.4,28.8,166.9,28.5,166.2,28.3z"/>
</g>
</svg>
