<svg id="Layer_1" xmlns="http://www.w3.org/2000/svg" width="400" height="140" viewBox="0 0 400 140"><style>.st0{fill:#fff}</style><path class="st0" d="M390.9 19.2c-1.6-5.1-4.6-8.2-9.9-9.9-33.9-10.9-67.7-10.9-101.6 0-4.8 1.6-7.7 4.4-9.3 9.3-2 6-3.6 12.1-4.9 18.1-1.2-5.9-2.8-11.8-4.7-17.7-1.6-5.1-4.6-8.2-9.9-9.9-33.8-10.9-67.7-10.8-101.6.1-4.8 1.6-7.7 4.4-9.3 9.3-2 6.1-3.6 12.1-4.9 18.2-1.2-5.8-2.8-11.7-4.6-17.5-1.6-5.1-4.6-8.2-9.9-9.9C86.4-1.6 52.5-1.6 18.6 9.3c-4.8 1.6-7.7 4.4-9.3 9.3-11.1 33.9-11.1 67.7 0 101.6 1.6 4.9 4.6 7.6 9.4 9.2 16.5 5.5 33.5 8 50.8 8.1 17.5-.1 34.6-2.6 51.3-8.2 4.6-1.6 7.5-4.3 9-9 2-6.1 3.7-12.3 5-18.4 1.3 6 2.9 12.1 4.9 18.1 1.6 4.9 4.6 7.6 9.4 9.2 16.5 5.5 33.5 8 50.8 8.1 17.5-.1 34.6-2.6 51.3-8.2 4.6-1.6 7.5-4.3 9-9 2-6.1 3.7-12.2 4.9-18.3 1.3 6.1 2.9 12.2 4.9 18.3 1.6 4.9 4.6 7.6 9.4 9.2 16.5 5.5 33.5 8 50.8 8.1 17.5-.1 34.6-2.6 51.3-8.2 4.6-1.6 7.5-4.3 9-9 11.3-33.6 11.2-67.3.4-101zm-267 98.4c-1 3.1-2.8 4.7-5.9 5.7-32.3 10.3-64.5 10.3-96.7 0-3.1-1-4.9-2.7-5.9-5.8C4.9 85.4 5 53.4 15.3 21.3c1-3 2.6-4.8 5.8-5.9 15.8-5.3 32-7.5 48.6-7.8 16.6.3 32.9 2.3 48.5 8.1 2.2.8 4.7 3.2 5.4 5.4 4.6 13.7 7.2 27.5 7.9 41.3-.2 4.7-.2 9.4 0 14.1-.6 13.6-3.2 27.4-7.6 41.1zm130.3-.1c-1 3.1-2.8 4.7-5.9 5.7-32.3 10.3-64.5 10.3-96.7 0-3.1-1-4.9-2.7-5.9-5.8-4.4-13.7-7-27.4-7.6-41.2.2-4.6.2-9.2 0-13.7.6-13.8 3.2-27.6 7.6-41.3 1-3 2.6-4.8 5.8-5.9 15.8-5.3 32-7.5 48.6-7.8 16.6.3 32.9 2.3 48.5 8.1 2.2.8 4.7 3.2 5.4 5.4 4.6 13.8 7.3 27.6 7.9 41.5-.2 4.6-.2 9.2 0 13.9-.6 13.6-3.2 27.4-7.7 41.1zm130.4.1c-1 3.1-2.8 4.7-5.9 5.7-32.3 10.3-64.5 10.3-96.7 0-3.1-1-4.9-2.7-5.9-5.8-4.5-13.8-7-27.6-7.6-41.4.2-4.5.2-9 0-13.5.6-13.8 3.2-27.6 7.6-41.3 1-3 2.6-4.8 5.8-5.9 15.8-5.3 32-7.5 48.6-7.8 16.6.3 32.9 2.3 48.5 8.1 2.2.8 4.7 3.2 5.4 5.4 10.8 32.1 10.7 64.3.2 96.5z"/><path class="st0" d="M364.5 51.2c-22.9-3.3-45.7-3.3-68.5 0-3.3.5-5.2 1.3-6.3 2.8-7.5 10.2-7.5 20.4 0 30.6 1.1 1.5 3.1 2.3 6.3 2.8 11.1 1.7 22.6 2.4 34.3 2.4 11.8 0 23.3-.8 34.6-2.5 3.1-.5 5-1.3 6.1-2.7 7.5-10.2 7.5-20.3.2-30.5-1.1-1.5-3.1-2.4-6.7-2.9z"/><circle class="st0" cx="89" cy="69.4" r="9.2"/><circle class="st0" cx="51.1" cy="69.4" r="9.2"/><path class="st0" d="M234.1 51.1c-22.9-3.3-45.7-3.3-68.5 0-3.3.5-5.2 1.3-6.3 2.8-7.5 10.2-7.5 20.4 0 30.6 1.1 1.5 3.1 2.3 6.3 2.8 11.1 1.7 22.6 2.4 34.3 2.4 11.8 0 23.3-.8 34.6-2.5 3.1-.5 5-1.3 6.1-2.7 7.5-10.2 7.5-20.3.2-30.5-1.1-1.5-3.1-2.4-6.7-2.9zm-52.6 27.4c-5.1 0-9.2-4.1-9.2-9.2s4.1-9.2 9.2-9.2 9.2 4.1 9.2 9.2-4.1 9.2-9.2 9.2zm37.9 0c-5.1 0-9.2-4.1-9.2-9.2s4.1-9.2 9.2-9.2 9.2 4.1 9.2 9.2c.1 5.1-4.1 9.2-9.2 9.2z"/></svg>