<svg id="Layer_1" xmlns="http://www.w3.org/2000/svg" width="180" height="57" viewBox="0 0 180 57"><style>.st0{fill:#fff}</style><path class="st0" d="M110.5 4.3C96.8-.1 83.1-.1 69.3 4.3c-1.9.6-3.1 1.8-3.7 3.8-4.5 13.7-4.5 27.4 0 41.2.6 1.9 1.9 3.1 3.8 3.7 6.7 2.3 13.6 3.2 20.6 3.3 7.1 0 14.1-1 20.8-3.4 1.9-.6 3-1.7 3.6-3.6 4.6-13.7 4.5-27.3.1-41-.6-2.1-1.8-3.3-4-4zm1.5 43.9c-.4 1.2-1.1 1.9-2.4 2.3-13.1 4.2-26.2 4.2-39.3 0-1.3-.4-1.9-1.1-2.4-2.4-4.2-13-4.2-26.1 0-39 .4-1.2 1.1-1.9 2.4-2.4 6.4-2.1 13-3 19.7-3.1 6.8.1 13.3.9 19.7 3.3.9.3 1.9 1.3 2.2 2.1 4.3 13.1 4.3 26.2.1 39.2z"/><circle class="st0" cx="97.8" cy="35.4" r="3.8"/><circle class="st0" cx="82.5" cy="35.4" r="3.8"/><path class="st0" d="M49.3 4.3C35.6-.1 21.9-.1 8.1 4.3 6.2 5 4.9 6.1 4.4 8.1c-4.5 13.7-4.5 27.4 0 41.2.6 1.9 1.8 3.1 3.8 3.7 6.7 2.3 13.6 3.2 20.6 3.3 7.1 0 14.1-1 20.8-3.4 1.9-.6 3-1.7 3.6-3.6 4.6-13.7 4.5-27.3.1-41-.6-2.1-1.8-3.3-4-4zm1.5 43.9c-.4 1.2-1.1 1.9-2.4 2.3-13.1 4.2-26.2 4.2-39.3 0-1.3-.4-1.9-1.1-2.4-2.4-4.2-13-4.2-26.1 0-39 .4-1.2 1.1-1.9 2.4-2.4 6.4-2.1 13-3 19.7-3.1 6.8.1 13.3.9 19.7 3.3.9.3 1.9 1.3 2.2 2.1 4.3 13.1 4.3 26.2.1 39.2z"/><path class="st0" d="M43.8 28.3l-1.2-.3c-.5-.1-1.1-.1-1.6-.2-8.1-1-16.2-1-24.4 0-.6.1-1.1.1-1.7.2-.4 0-.8.1-1.1.2-.7.2-1.1.5-1.4.9-1.7 2.3-2.4 4.6-2.2 7 .1.9.3 1.7.7 2.6.4.9.9 1.9 1.6 2.8.4.6 1.2.9 2.6 1.1 4.5.7 9.1 1 13.9 1 4.8 0 9.4-.3 13.9-1 1.2-.2 2-.5 2.5-1.1.7-.9 1.2-1.9 1.6-2.8.4-.9.6-1.7.7-2.6.2-2.3-.5-4.6-2.2-6.9-.5-.4-1-.7-1.7-.9zM21.3 39.2c-2.1 0-3.8-1.7-3.8-3.8s1.7-3.8 3.8-3.8 3.8 1.7 3.8 3.8c-.1 2.1-1.8 3.8-3.8 3.8zm15.3 0c-2.1 0-3.8-1.7-3.8-3.8s1.7-3.8 3.8-3.8c2.1 0 3.7 1.7 3.7 3.8 0 2.1-1.6 3.7-3.7 3.8zM175.7 8.3c-.6-2.1-1.9-3.3-4-4-13.8-4.4-27.5-4.4-41.3.1-1.9.6-3.1 1.8-3.7 3.8-4.5 13.7-4.5 27.4 0 41.2.6 1.9 1.9 3.1 3.8 3.7 6.7 2.3 13.6 3.2 20.6 3.3 7.1 0 14.1-1 20.8-3.4 1.9-.6 3-1.7 3.6-3.6 4.7-13.8 4.6-27.4.2-41.1zm-2.5 39.9c-.4 1.2-1.1 1.9-2.4 2.3-13.1 4.2-26.2 4.2-39.3 0-1.3-.4-1.9-1.1-2.4-2.4-4.2-13-4.2-26.1 0-39 .4-1.2 1.1-1.9 2.4-2.4 6.4-2.1 13-3 19.7-3.1 6.8.1 13.3.9 19.7 3.3.9.3 1.9 1.3 2.2 2.1 4.3 13.1 4.3 26.2.1 39.2z"/><path class="st0" d="M166.2 28.3L165 28c-.5-.1-1.1-.1-1.6-.2-8.1-1-16.2-1-24.4 0-.6.1-1.1.1-1.7.2-.4 0-.8.1-1.1.2-.7.2-1.1.5-1.4.9-1.7 2.3-2.4 4.6-2.2 7 .1.9.3 1.7.7 2.6.4.9.9 1.9 1.6 2.8.4.6 1.2.9 2.6 1.1 4.5.7 9.1 1 13.9 1 4.8 0 9.4-.3 14-1 1.2-.2 2-.5 2.5-1.1.7-.9 1.2-1.9 1.6-2.8.4-.9.6-1.7.7-2.6.2-2.3-.5-4.6-2.2-6.9-.6-.4-1.1-.7-1.8-.9z"/></svg>