<?xml version="1.0" encoding="utf-8"?>
<!-- Generator: Adobe Illustrator 21.0.2, SVG Export Plug-In . SVG Version: 6.00 Build 0)  -->
<svg version="1.1" id="Layer_1" xmlns="http://www.w3.org/2000/svg" xmlns:xlink="http://www.w3.org/1999/xlink" x="0px" y="0px"
	 width="302px" height="175px" viewBox="0 0 302 175" style="enable-background:new 0 0 302 175;" xml:space="preserve">
<style type="text/css">
	.st0{fill:#FFFFFF;}
</style>
<g>
	<path class="st0" d="M293.6,17.6c-1.5-4.7-4.2-7.5-9-9.1c-31.1-10-62-9.9-93.1,0.1c-4.4,1.4-7.1,4-8.5,8.5c-3.7,11.2-6,22.4-7,33.5
		c-16.7-2.9-33.3-2.9-49.9,0c-1-11-3.3-22-6.8-33c-1.5-4.7-4.2-7.5-9-9.1c-31.1-10-62-9.9-93.1,0.1c-4.4,1.4-7.1,4-8.5,8.5
		c-10.1,31-10.1,62,0,93c1.5,4.5,4.2,7,8.6,8.5c15.1,5.1,30.7,7.3,46.5,7.4c8.4,0,16.8-0.7,25-2c1,11.2,3.4,22.4,7,33.6
		c1.5,4.5,4.2,7,8.6,8.5c15.1,5.1,30.7,7.3,46.5,7.4c16-0.1,31.7-2.3,47-7.5c4.2-1.4,6.8-4,8.3-8.2c3.7-11.2,6.1-22.5,7.1-33.7
		c8.2,1.3,16.5,2,24.9,2.1c16-0.1,31.7-2.3,47-7.5c4.2-1.4,6.8-4,8.3-8.2C303.5,79.3,303.5,48.5,293.6,17.6z M19.5,112.9
		c-2.9-0.9-4.5-2.5-5.4-5.3c-9.5-29.4-9.5-58.7,0-88.1c0.9-2.8,2.4-4.4,5.3-5.4C33.8,9.2,48.7,7.2,63.9,7C79,7.2,94,9,108.3,14.3
		c2,0.8,4.3,2.9,5,4.9c3.6,10.8,5.9,21.6,6.9,32.5c-5.3,1.1-10.5,2.5-15.8,4.2c-4.4,1.4-7.1,4-8.5,8.5c-5.8,17.8-8.3,35.6-7.4,53.4
		C65.4,121.8,42.5,120.2,19.5,112.9z M175.6,56.5c2,0.3,4,0.7,5.9,1.2c4.7,1,9.4,2.4,14,4.1c0.2,0.1,0.3,0.1,0.5,0.2
		c1.9,0.9,3.9,2.8,4.5,4.7c1.4,4.3,2.6,8.5,3.7,12.8c2.9,12.4,4.1,24.8,3.6,37.2c-0.1,2-0.2,4.1-0.4,6.1
		c-0.9,10.8-3.2,21.6-6.7,32.4c-0.9,2.9-2.6,4.3-5.4,5.2c-29.5,9.4-59,9.4-88.6,0c-2.9-0.9-4.5-2.5-5.4-5.3
		c-3.5-10.8-5.7-21.5-6.6-32.3c-0.2-2-0.3-4.1-0.4-6.1c-0.7-16.6,1.6-33.1,7-49.7c0.9-2.8,2.4-4.4,5.3-5.4c4.6-1.6,9.3-2.8,14-3.8
		c2-0.4,3.9-0.8,5.9-1.1 M287.8,107.7c-0.9,2.9-2.6,4.3-5.4,5.2c-22.9,7.3-45.8,8.9-68.8,4.9c0.6-12.4-0.4-24.8-3.1-37.2
		c9,1.2,18.2,1.7,27.6,1.7c10.8,0,21.4-0.7,31.6-2.3c2.8-0.4,4.6-1.2,5.6-2.5c6.9-9.3,6.8-18.6,0.2-27.9c-1-1.4-2.9-2.3-6.1-2.7
		c-20.9-3-41.8-3-62.7,0c-3,0.4-4.8,1.2-5.8,2.6c-1.6,2.1-2.7,4.3-3.6,6.4c0,0,0,0,0,0c-5.2-1.7-10.3-3-15.5-4.1
		c0.9-10.7,3.1-21.5,6.6-32.2c0.9-2.8,2.4-4.4,5.3-5.4c14.4-4.9,29.3-6.9,44.5-7.1c15.2,0.3,30.1,2.1,44.4,7.4c2,0.8,4.3,2.9,5,4.9
		C297.5,48.7,297.4,78.2,287.8,107.7z"/>
	<circle class="st0" cx="81.6" cy="63.5" r="8.5"/>
	<circle class="st0" cx="46.9" cy="63.5" r="8.5"/>
	<path class="st0" d="M185,94.8c-0.8-0.2-1.7-0.4-2.7-0.6c-1.2-0.2-2.4-0.3-3.7-0.5c-18.4-2.3-36.8-2.3-55.2,0
		c-1.3,0.2-2.6,0.3-3.9,0.5c-1,0.1-1.8,0.3-2.5,0.5c-1.5,0.5-2.6,1.1-3.2,2c-3.9,5.3-5.5,10.5-5,15.8c0.2,2,0.7,3.9,1.5,5.9
		c0.8,2.1,2,4.2,3.6,6.3c1,1.3,2.8,2.1,5.8,2.5c10.2,1.5,20.7,2.2,31.4,2.2c10.8,0,21.4-0.7,31.6-2.3c2.8-0.4,4.6-1.2,5.6-2.5
		c1.6-2.1,2.8-4.2,3.6-6.4c0.8-2,1.3-3.9,1.5-5.9c0.5-5.2-1.2-10.4-4.9-15.7C187.7,96,186.6,95.3,185,94.8z M134.1,119.4
		c-4.7,0-8.5-3.8-8.5-8.5c0-4.7,3.8-8.5,8.5-8.5c4.7,0,8.5,3.8,8.5,8.5C142.5,115.6,138.7,119.4,134.1,119.4z M168.8,119.4
		c-4.7,0-8.5-3.8-8.5-8.5c0-4.7,3.8-8.5,8.5-8.5c4.7,0,8.5,3.8,8.5,8.5C177.2,115.6,173.4,119.4,168.8,119.4z"/>
</g>
</svg>
