<svg id="Layer_1" xmlns="http://www.w3.org/2000/svg" width="80" height="80" viewBox="0 0 80 80"><style>.st0{fill:#fff}</style><path class="st0" d="M40 78.5c-9.9-.1-19.5-1.4-28.9-4.6-2.7-.9-4.4-2.5-5.3-5.2C-.5 49.4-.5 30.2 5.8 11c.8-2.8 2.5-4.4 5.2-5.3C30.3-.5 49.5-.5 68.8 5.6c3 1 4.7 2.7 5.6 5.6 6.1 19.2 6.2 38.3-.2 57.5-.9 2.7-2.5 4.2-5.1 5.1-9.4 3.3-19.2 4.7-29.1 4.7zm0-73.8c-9.4.2-18.7 1.4-27.6 4.4-1.8.6-2.7 1.6-3.3 3.3-5.9 18.2-5.9 36.5 0 54.7.6 1.7 1.5 2.7 3.3 3.3 18.3 5.9 36.6 5.9 55 0 1.8-.6 2.8-1.5 3.4-3.2 5.9-18.3 6-36.6-.1-54.9-.4-1.2-1.8-2.6-3.1-3C58.7 6 49.5 4.9 40 4.7z"/><circle class="st0" cx="51" cy="39.8" r="5.3"/><circle class="st0" cx="29.5" cy="39.8" r="5.3"/></svg>