<?xml version="1.0" encoding="utf-8"?>
<!-- Generator: Adobe Illustrator 21.1.0, SVG Export Plug-In . SVG Version: 6.00 Build 0)  -->
<svg version="1.1" id="Layer_1" xmlns="http://www.w3.org/2000/svg" xmlns:xlink="http://www.w3.org/1999/xlink" x="0px" y="0px"
	 width="180px" height="75px" viewBox="0 0 180 75" style="enable-background:new 0 0 180 75;" xml:space="preserve">
<style type="text/css">
	.st0{fill:#FFFFFF;}
	.st1{fill-rule:evenodd;clip-rule:evenodd;fill:#FFFFFF;}
</style>
<g>
	<path class="st0" d="M90,19.3c-6.9,0.1-13.8,1-20.4,3.2c-1.3,0.4-2,1.2-2.4,2.4c-4.4,13.4-4.4,26.9,0,40.4c0.4,1.3,1.1,2,2.4,2.4
		c13.5,4.4,27,4.4,40.6,0c1.3-0.4,2.1-1.1,2.5-2.4c4.4-13.5,4.4-27-0.1-40.5c-0.3-0.9-1.3-1.9-2.3-2.2C103.8,20.3,97,19.5,90,19.3z
		 M90,73.8c-7.3-0.1-14.4-1-21.3-3.4c-2-0.7-3.2-1.8-3.9-3.8c-4.6-14.2-4.6-28.4,0-42.6c0.6-2.1,1.8-3.2,3.8-3.9
		c14.2-4.6,28.4-4.6,42.6-0.1c2.2,0.7,3.5,2,4.1,4.1c4.5,14.2,4.6,28.3-0.1,42.4c-0.7,2-1.8,3.1-3.8,3.8
		C104.5,72.7,97.3,73.8,90,73.8z"/>
	<circle class="st1" cx="98.1" cy="52.2" r="3.9"/>
	<circle class="st1" cx="82.2" cy="52.2" r="3.9"/>
	<path class="st0" d="M29.7,3.7c-6.9,0.1-13.8,1-20.4,3.2C8,7.4,7.4,8.1,6.9,9.4c-4.4,13.4-4.4,26.9,0,40.4c0.4,1.3,1.1,2,2.4,2.4
		c13.5,4.4,27,4.4,40.6,0c1.3-0.4,2.1-1.1,2.5-2.4c4.4-13.5,4.4-27-0.1-40.5c-0.3-0.9-1.3-1.9-2.3-2.2C43.5,4.7,36.7,3.8,29.7,3.7z
		 M29.7,58.2c-7.3-0.1-14.4-1-21.3-3.4c-2-0.7-3.2-1.8-3.9-3.8c-4.6-14.2-4.6-28.4,0-42.6c0.6-2.1,1.8-3.2,3.8-3.9
		C22.6-0.1,36.7-0.1,51,4.4c2.2,0.7,3.5,2,4.1,4.1c4.5,14.2,4.6,28.3-0.1,42.4c-0.7,2-1.8,3.1-3.8,3.8C44.3,57.1,37,58.2,29.7,58.2z
		"/>
	<path class="st0" d="M37.8,40.4c-2.1,0-3.9-1.7-3.9-3.9c0-2.1,1.7-3.9,3.9-3.9c2.1,0,3.9,1.7,3.9,3.9
		C41.7,38.7,39.9,40.4,37.8,40.4z M22,40.4c-2.1,0-3.9-1.7-3.9-3.9c0-2.1,1.7-3.9,3.9-3.9c2.1,0,3.9,1.7,3.9,3.9
		C25.8,38.7,24.1,40.4,22,40.4z M45.2,29.2c-0.4-0.1-0.8-0.2-1.2-0.3c-0.5-0.1-1.1-0.1-1.7-0.2c-8.4-1-16.8-1-25.2,0
		c-0.6,0.1-1.2,0.1-1.8,0.2c-0.5,0-0.8,0.1-1.1,0.2c-0.7,0.2-1.2,0.5-1.5,0.9c-1.8,2.4-2.5,4.8-2.3,7.2c0.1,0.9,0.3,1.8,0.7,2.7
		c0.4,1,0.9,1.9,1.6,2.9c0.5,0.6,1.3,1,2.6,1.1c4.7,0.7,9.4,1,14.3,1c4.9,0,9.8-0.3,14.4-1c1.3-0.2,2.1-0.5,2.6-1.1
		c0.7-1,1.3-1.9,1.6-2.9c0.4-0.9,0.6-1.8,0.7-2.7c0.2-2.4-0.5-4.7-2.2-7.2C46.4,29.8,45.9,29.4,45.2,29.2z"/>
	<path class="st0" d="M150.2,3.7c-6.9,0.1-13.8,1-20.4,3.2c-1.3,0.4-2,1.2-2.4,2.4c-4.4,13.4-4.4,26.9,0,40.4c0.4,1.3,1.1,2,2.4,2.4
		c13.5,4.4,27,4.4,40.6,0c1.3-0.4,2.1-1.1,2.5-2.4c4.4-13.5,4.4-27-0.1-40.5c-0.3-0.9-1.3-1.9-2.3-2.2C164,4.7,157.2,3.8,150.2,3.7z
		 M150.2,58.2c-7.3-0.1-14.4-1-21.3-3.4c-2-0.7-3.2-1.8-3.9-3.8c-4.6-14.2-4.6-28.4,0-42.6c0.6-2.1,1.8-3.2,3.8-3.9
		c14.2-4.6,28.4-4.6,42.6-0.1c2.2,0.7,3.5,2,4.1,4.1c4.5,14.2,4.6,28.3-0.1,42.4c-0.7,2-1.8,3.1-3.8,3.8
		C164.8,57.1,157.5,58.2,150.2,58.2z"/>
	<path class="st1" d="M165.7,29.2c-0.4-0.1-0.8-0.2-1.2-0.3c-0.5-0.1-1.1-0.1-1.7-0.2c-8.4-1-16.8-1-25.2,0
		c-0.6,0.1-1.2,0.1-1.8,0.2c-0.5,0-0.8,0.1-1.1,0.2c-0.7,0.2-1.2,0.5-1.5,0.9c-1.8,2.4-2.5,4.8-2.3,7.2c0.1,0.9,0.3,1.8,0.7,2.7
		c0.4,1,0.9,1.9,1.6,2.9c0.5,0.6,1.3,1,2.6,1.1c4.7,0.7,9.4,1,14.3,1c4.9,0,9.8-0.3,14.4-1c1.3-0.2,2.1-0.5,2.6-1.1
		c0.7-1,1.3-1.9,1.6-2.9c0.4-0.9,0.6-1.8,0.7-2.7c0.2-2.4-0.5-4.7-2.2-7.2C167,29.8,166.5,29.4,165.7,29.2z"/>
</g>
</svg>
