<svg id="Layer_1" xmlns="http://www.w3.org/2000/svg" width="80" height="86" viewBox="0 0 80 86"><style>.st0,.st1{fill:#fff}.st1{fill-rule:evenodd;clip-rule:evenodd}.st2{fill:#fff;stroke:#fff;stroke-width:4;stroke-miterlimit:10}</style><path class="st0" d="M40 10.7c-9.5.2-18.8 1.4-27.8 4.4-1.8.6-2.7 1.6-3.3 3.3C3 36.7 3 55.2 8.9 73.5c.6 1.7 1.5 2.7 3.3 3.3 18.4 5.9 36.9 5.9 55.4 0 1.8-.6 2.8-1.5 3.4-3.2 5.9-18.4 6-36.9-.1-55.3-.4-1.2-1.8-2.6-3.1-3-9-3.3-18.3-4.4-27.8-4.6zM40 85c-10-.1-19.6-1.4-29.1-4.6-2.7-.9-4.4-2.5-5.3-5.2-6.3-19.4-6.3-38.8 0-58.1.8-2.8 2.5-4.4 5.2-5.3 19.4-6.3 38.7-6.3 58.2-.2 3 1 4.7 2.7 5.6 5.6 6.1 19.3 6.2 38.6-.2 57.9-.9 2.7-2.5 4.2-5.1 5.1C59.8 83.6 49.9 85 40 85z"/><circle class="st1" cx="51" cy="55.6" r="5.3"/><circle class="st1" cx="29.4" cy="55.6" r="5.3"/></svg>