<?xml version="1.0" encoding="utf-8"?>
<!-- Generator: Adobe Illustrator 21.0.2, SVG Export Plug-In . SVG Version: 6.00 Build 0)  -->
<svg version="1.1" xmlns="http://www.w3.org/2000/svg" xmlns:xlink="http://www.w3.org/1999/xlink" x="0px" y="0px" width="500px"
	 height="500px" viewBox="0 0 500 500" style="enable-background:new 0 0 500 500;" xml:space="preserve">
<style type="text/css">
	.st0{fill:#231F20;}
	.st1{fill:none;stroke:#231F20;stroke-width:20;stroke-linecap:round;stroke-miterlimit:10;}
	.st2{fill:none;}
	.st3{font-family:'Miso-Bold';}
	.st4{font-size:28.59px;}
</style>
<g id="Layer_1">
</g>
<g id="Layer_2">
	<g>
		<g>
			<g id="o7weua_1_">
				
					<image style="overflow:visible;" width="260" height="194" id="o7weua_2_" xlink:href="A3FF2E1E41B37CC2.png"  transform="matrix(1.0454 0 0 1.0454 114.1311 162.6225)">
				</image>
			</g>
			<g>
				<g>
					<path class="st0" d="M250,483.2c-31.5,0-62-6.2-90.8-18.3c-27.8-11.7-52.7-28.6-74.1-50c-21.4-21.4-38.2-46.4-50-74.1
						C23,312,16.8,281.5,16.8,250c0-31.5,6.2-62,18.3-90.8c11.7-27.8,28.6-52.7,50-74.1c21.4-21.4,46.4-38.2,74.1-50
						C188,23,218.5,16.8,250,16.8c31.5,0,62,6.2,90.8,18.3c27.8,11.7,52.7,28.6,74.1,50c21.4,21.4,38.2,46.4,50,74.1
						c12.2,28.8,18.3,59.3,18.3,90.8c0,31.5-6.2,62-18.3,90.8c-11.7,27.8-28.6,52.7-50,74.1c-21.4,21.4-46.4,38.2-74.1,50
						C312,477,281.5,483.2,250,483.2z M250,22.9c-30.7,0-60.4,6-88.4,17.8c-27,11.4-51.3,27.8-72.2,48.7
						c-20.9,20.9-37.2,45.1-48.7,72.2c-11.8,28-17.8,57.7-17.8,88.4c0,30.7,6,60.4,17.8,88.4c11.4,27,27.8,51.3,48.7,72.2
						c20.9,20.9,45.1,37.2,72.2,48.7c28,11.8,57.7,17.8,88.4,17.8c30.7,0,60.4-6,88.4-17.8c27-11.4,51.3-27.8,72.2-48.7
						c20.9-20.9,37.2-45.1,48.7-72.2c11.8-28,17.8-57.7,17.8-88.4c0-30.7-6-60.4-17.8-88.4c-11.4-27-27.8-51.3-48.7-72.2
						c-20.9-20.9-45.1-37.2-72.2-48.7C310.4,28.9,280.7,22.9,250,22.9z"/>
				</g>
			</g>
			<g>
				<g>
					<path class="st0" d="M250,499c-33.6,0-66.2-6.6-96.9-19.6c-29.7-12.5-56.3-30.5-79.1-53.4c-22.9-22.9-40.8-49.5-53.4-79.1
						C7.6,316.2,1,283.6,1,250c0-33.6,6.6-66.2,19.6-96.9c12.5-29.7,30.5-56.3,53.4-79.1c22.9-22.9,49.5-40.8,79.1-53.4
						C183.8,7.6,216.4,1,250,1c33.6,0,66.2,6.6,96.9,19.6c29.7,12.5,56.3,30.5,79.1,53.4c22.9,22.9,40.8,49.5,53.4,79.1
						c13,30.7,19.6,63.3,19.6,96.9c0,33.6-6.6,66.2-19.6,96.9c-12.5,29.7-30.5,56.3-53.4,79.1c-22.9,22.9-49.5,40.8-79.1,53.4
						C316.2,492.4,283.6,499,250,499z M250,7.1c-32.8,0-64.6,6.4-94.5,19.1c-28.9,12.2-54.9,29.7-77.2,52.1
						c-22.3,22.3-39.8,48.3-52.1,77.2C13.5,185.4,7.1,217.2,7.1,250c0,32.8,6.4,64.6,19.1,94.5c12.2,28.9,29.7,54.9,52.1,77.2
						c22.3,22.3,48.3,39.8,77.2,52.1c29.9,12.7,61.8,19.1,94.5,19.1c32.8,0,64.6-6.4,94.5-19.1c28.9-12.2,54.9-29.7,77.2-52.1
						c22.3-22.3,39.8-48.3,52.1-77.2c12.7-29.9,19.1-61.8,19.1-94.5c0-32.8-6.4-64.6-19.1-94.5c-12.2-28.9-29.7-54.9-52.1-77.2
						c-22.3-22.3-48.3-39.8-77.2-52.1C314.6,13.5,282.8,7.1,250,7.1z"/>
				</g>
			</g>
			<g>
				<g>
					<g>
						<g>
							<g>
								<g>
									<path class="st0" d="M250,44.4c-1.7,0-3.1-1.4-3.1-3.1V22.2c0-1.7,1.4-3.1,3.1-3.1c1.7,0,3.1,1.4,3.1,3.1v19.1
										C253.1,43,251.7,44.4,250,44.4z"/>
								</g>
							</g>
							<g>
								<g>
									<path class="st0" d="M250,480.9c-1.7,0-3.1-1.4-3.1-3.1v-19.1c0-1.7,1.4-3.1,3.1-3.1c1.7,0,3.1,1.4,3.1,3.1v19.1
										C253.1,479.5,251.7,480.9,250,480.9z"/>
								</g>
							</g>
						</g>
						<g>
							<g>
								<g>
									<path class="st0" d="M477.8,253.1h-19.1c-1.7,0-3.1-1.4-3.1-3.1c0-1.7,1.4-3.1,3.1-3.1h19.1c1.7,0,3.1,1.4,3.1,3.1
										C480.9,251.7,479.5,253.1,477.8,253.1z"/>
								</g>
							</g>
							<g>
								<g>
									<path class="st0" d="M41.3,253.1H22.2c-1.7,0-3.1-1.4-3.1-3.1c0-1.7,1.4-3.1,3.1-3.1h19.1c1.7,0,3.1,1.4,3.1,3.1
										C44.4,251.7,43,253.1,41.3,253.1z"/>
								</g>
							</g>
						</g>
					</g>
					<g>
						<g>
							<g>
								<g>
									<path class="st0" d="M145.7,72.3c-1.1,0-2.1-0.5-2.7-1.5l-9.6-16.5c-0.8-1.5-0.3-3.3,1.1-4.2c1.5-0.8,3.3-0.3,4.2,1.1
										l9.6,16.5c0.8,1.5,0.3,3.3-1.1,4.2C146.7,72.2,146.2,72.3,145.7,72.3z"/>
								</g>
							</g>
							<g>
								<g>
									<path class="st0" d="M363.9,450.3c-1.1,0-2.1-0.5-2.7-1.5l-9.6-16.5c-0.8-1.5-0.3-3.3,1.1-4.2c1.5-0.8,3.3-0.3,4.2,1.1
										l9.6,16.5c0.8,1.5,0.3,3.3-1.1,4.2C365,450.2,364.4,450.3,363.9,450.3z"/>
								</g>
							</g>
						</g>
						<g>
							<g>
								<g>
									<path class="st0" d="M430.7,148.7c-1.1,0-2.1-0.5-2.7-1.5c-0.8-1.5-0.3-3.3,1.1-4.2l16.5-9.6c1.5-0.8,3.3-0.3,4.2,1.1
										c0.8,1.5,0.3,3.3-1.1,4.2l-16.5,9.6C431.8,148.6,431.3,148.7,430.7,148.7z"/>
								</g>
							</g>
							<g>
								<g>
									<path class="st0" d="M52.7,367c-1.1,0-2.1-0.5-2.7-1.5c-0.8-1.5-0.3-3.3,1.1-4.2l16.5-9.6c1.5-0.8,3.3-0.3,4.2,1.1
										c0.8,1.5,0.3,3.3-1.1,4.2l-16.5,9.6C53.8,366.8,53.2,367,52.7,367z"/>
								</g>
							</g>
						</g>
					</g>
					<g>
						<g>
							<g>
								<g>
									<path class="st0" d="M69.3,148.7c-0.5,0-1-0.1-1.5-0.4l-16.5-9.6c-1.5-0.8-2-2.7-1.1-4.2c0.8-1.5,2.7-2,4.2-1.1l16.5,9.6
										c1.5,0.8,2,2.7,1.1,4.2C71.3,148.2,70.3,148.7,69.3,148.7z"/>
								</g>
							</g>
							<g>
								<g>
									<path class="st0" d="M447.3,367c-0.5,0-1-0.1-1.5-0.4l-16.5-9.6c-1.5-0.8-2-2.7-1.1-4.2c0.8-1.5,2.7-2,4.2-1.1l16.5,9.6
										c1.5,0.8,2,2.7,1.1,4.2C449.4,366.4,448.3,367,447.3,367z"/>
								</g>
							</g>
						</g>
						<g>
							<g>
								<g>
									<path class="st0" d="M354.3,72.3c-0.5,0-1-0.1-1.5-0.4c-1.5-0.8-2-2.7-1.1-4.2l9.6-16.5c0.8-1.5,2.7-2,4.2-1.1
										c1.5,0.8,2,2.7,1.1,4.2L357,70.8C356.4,71.8,355.4,72.3,354.3,72.3z"/>
								</g>
							</g>
							<g>
								<g>
									<path class="st0" d="M136.1,450.3c-0.5,0-1-0.1-1.5-0.4c-1.5-0.8-2-2.7-1.1-4.2l9.6-16.5c0.8-1.5,2.7-2,4.2-1.1
										c1.5,0.8,2,2.7,1.1,4.2l-9.6,16.5C138.2,449.8,137.2,450.3,136.1,450.3z"/>
								</g>
							</g>
						</g>
					</g>
				</g>
				<g>
					<g>
						<g>
							<g>
								<g>
									<path class="st0" d="M305.1,51.8c-0.3,0-0.5,0-0.8-0.1c-1.6-0.4-2.6-2.1-2.1-3.8l5-18.4c0.4-1.6,2.1-2.6,3.8-2.1
										c1.6,0.4,2.6,2.1,2.1,3.8l-5,18.4C307.6,50.9,306.4,51.8,305.1,51.8z"/>
								</g>
							</g>
							<g>
								<g>
									<path class="st0" d="M189.9,472.8c-0.3,0-0.5,0-0.8-0.1c-1.6-0.4-2.6-2.1-2.1-3.8l5-18.4c0.4-1.6,2.1-2.6,3.8-2.1
										c1.6,0.4,2.6,2.1,2.1,3.8l-5,18.4C192.5,471.9,191.3,472.8,189.9,472.8z"/>
								</g>
							</g>
						</g>
						<g>
							<g>
								<g>
									<path class="st0" d="M469.7,313.2c-0.3,0-0.5,0-0.8-0.1l-18.4-5c-1.6-0.4-2.6-2.1-2.1-3.8c0.4-1.6,2.1-2.6,3.8-2.1l18.4,5
										c1.6,0.4,2.6,2.1,2.1,3.8C472.3,312.3,471.1,313.2,469.7,313.2z"/>
								</g>
							</g>
							<g>
								<g>
									<path class="st0" d="M48.7,198c-0.3,0-0.5,0-0.8-0.1l-18.4-5c-1.6-0.4-2.6-2.1-2.1-3.8c0.4-1.6,2.1-2.6,3.8-2.1l18.4,5
										c1.6,0.4,2.6,2.1,2.1,3.8C51.3,197.1,50,198,48.7,198z"/>
								</g>
							</g>
						</g>
					</g>
					<g>
						<g>
							<g>
								<g>
									<path class="st0" d="M197,51.2c-1.4,0-2.6-0.9-3-2.3l-4.9-18.5c-0.4-1.6,0.5-3.3,2.2-3.7c1.6-0.4,3.3,0.5,3.7,2.2l4.9,18.5
										c0.4,1.6-0.5,3.3-2.2,3.7C197.5,51.2,197.3,51.2,197,51.2z"/>
								</g>
							</g>
							<g>
								<g>
									<path class="st0" d="M307.8,473.4c-1.4,0-2.6-0.9-3-2.3l-4.9-18.5c-0.4-1.6,0.5-3.3,2.2-3.7c1.6-0.4,3.3,0.5,3.7,2.2
										l4.9,18.5c0.4,1.6-0.5,3.3-2.2,3.7C308.3,473.4,308.1,473.4,307.8,473.4z"/>
								</g>
							</g>
						</g>
						<g>
							<g>
								<g>
									<path class="st0" d="M451.9,200.1c-1.4,0-2.6-0.9-3-2.3c-0.4-1.6,0.5-3.3,2.2-3.7l18.5-4.9c1.6-0.4,3.3,0.5,3.7,2.2
										c0.4,1.6-0.5,3.3-2.2,3.7l-18.5,4.9C452.4,200.1,452.1,200.1,451.9,200.1z"/>
								</g>
							</g>
							<g>
								<g>
									<path class="st0" d="M29.7,310.9c-1.4,0-2.6-0.9-3-2.3c-0.4-1.6,0.5-3.3,2.2-3.7l18.5-4.9c1.6-0.4,3.3,0.5,3.7,2.2
										c0.4,1.6-0.5,3.3-2.2,3.7l-18.5,4.9C30.2,310.9,29.9,310.9,29.7,310.9z"/>
								</g>
							</g>
						</g>
					</g>
					<g>
						<g>
							<g>
								<g>
									<path class="st0" d="M103.2,104.7c-0.8,0-1.6-0.3-2.2-0.9L87.6,90.2c-1.2-1.2-1.2-3.1,0-4.3c1.2-1.2,3.1-1.2,4.3,0
										l13.4,13.6c1.2,1.2,1.2,3.1,0,4.3C104.7,104.4,104,104.7,103.2,104.7z"/>
								</g>
							</g>
							<g>
								<g>
									<path class="st0" d="M410.3,415c-0.8,0-1.6-0.3-2.2-0.9l-13.4-13.6c-1.2-1.2-1.2-3.1,0-4.3c1.2-1.2,3.1-1.2,4.3,0
										l13.4,13.6c1.2,1.2,1.2,3.1,0,4.3C411.8,414.7,411,415,410.3,415z"/>
								</g>
							</g>
						</g>
						<g>
							<g>
								<g>
									<path class="st0" d="M398.3,106.2c-0.8,0-1.6-0.3-2.2-0.9c-1.2-1.2-1.2-3.1,0-4.3l13.6-13.4c1.2-1.2,3.1-1.2,4.3,0
										c1.2,1.2,1.2,3.1,0,4.3l-13.6,13.4C399.9,106,399.1,106.2,398.3,106.2z"/>
								</g>
							</g>
							<g>
								<g>
									<path class="st0" d="M88.1,413.3c-0.8,0-1.6-0.3-2.2-0.9c-1.2-1.2-1.2-3.1,0-4.3l13.6-13.4c1.2-1.2,3.1-1.2,4.3,0
										c1.2,1.2,1.2,3.1,0,4.3l-13.6,13.4C89.6,413,88.9,413.3,88.1,413.3z"/>
								</g>
							</g>
						</g>
					</g>
				</g>
			</g>
			<g>
				<g>
					<g>
						<g>
							<g>
								<g>
									<path class="st0" d="M276.7,54.3c-0.1,0-0.3,0-0.4,0c-1.7-0.2-2.8-1.8-2.6-3.4l2.4-18.2c0.2-1.7,1.8-2.9,3.4-2.6
										c1.7,0.2,2.8,1.8,2.6,3.4l-2.4,18.2C279.6,53.1,278.2,54.3,276.7,54.3z"/>
								</g>
							</g>
							<g>
								<g>
									<path class="st0" d="M220.8,470.1c-0.1,0-0.3,0-0.4,0c-1.7-0.2-2.8-1.8-2.6-3.4l2.4-18.2c0.2-1.7,1.8-2.8,3.4-2.6
										c1.7,0.2,2.8,1.8,2.6,3.4l-2.4,18.2C223.6,469,222.3,470.1,220.8,470.1z"/>
								</g>
							</g>
						</g>
						<g>
							<g>
								<g>
									<path class="st0" d="M467,282.2c-0.1,0-0.3,0-0.4,0l-18.2-2.4c-1.7-0.2-2.8-1.8-2.6-3.4c0.2-1.7,1.8-2.8,3.4-2.6l18.2,2.4
										c1.7,0.2,2.8,1.8,2.6,3.4C469.8,281.1,468.5,282.2,467,282.2z"/>
								</g>
							</g>
							<g>
								<g>
									<path class="st0" d="M51.2,226.3c-0.1,0-0.3,0-0.4,0l-18.2-2.4c-1.7-0.2-2.8-1.8-2.6-3.4c0.2-1.7,1.8-2.8,3.4-2.6l18.2,2.4
										c1.7,0.2,2.8,1.8,2.6,3.4C54,225.2,52.7,226.3,51.2,226.3z"/>
								</g>
							</g>
						</g>
					</g>
					<g>
						<g>
							<g>
								<g>
									<path class="st0" d="M173.8,67.5c-1.2,0-2.3-0.7-2.8-1.9l-7-17c-0.6-1.6,0.1-3.3,1.7-4c1.6-0.6,3.3,0.1,4,1.7l7,17
										c0.6,1.6-0.1,3.3-1.7,4C174.5,67.4,174.1,67.5,173.8,67.5z"/>
								</g>
							</g>
							<g>
								<g>
									<path class="st0" d="M333.2,455.6c-1.2,0-2.3-0.7-2.8-1.9l-7-17c-0.6-1.6,0.1-3.3,1.7-4c1.6-0.6,3.3,0.1,4,1.7l7,17
										c0.6,1.6-0.1,3.3-1.7,4C334,455.5,333.6,455.6,333.2,455.6z"/>
								</g>
							</g>
						</g>
						<g>
							<g>
								<g>
									<path class="st0" d="M435.5,176.8c-1.2,0-2.3-0.7-2.8-1.9c-0.6-1.6,0.1-3.3,1.7-4l17-7c1.6-0.6,3.3,0.1,4,1.7
										c0.6,1.6-0.1,3.3-1.7,4l-17,7C436.3,176.7,435.9,176.8,435.5,176.8z"/>
								</g>
							</g>
							<g>
								<g>
									<path class="st0" d="M47.5,336.3c-1.2,0-2.3-0.7-2.8-1.9c-0.6-1.6,0.1-3.3,1.7-4l17-7c1.6-0.6,3.3,0.1,4,1.7
										c0.6,1.6-0.1,3.3-1.7,4l-17,7C48.3,336.2,47.9,336.3,47.5,336.3z"/>
								</g>
							</g>
						</g>
					</g>
					<g>
						<g>
							<g>
								<g>
									<path class="st0" d="M91.2,130.5c-0.7,0-1.3-0.2-1.9-0.6l-14.5-11.2c-1.3-1-1.6-3-0.6-4.3c1-1.3,3-1.6,4.3-0.6L93.1,125
										c1.3,1,1.6,3,0.6,4.3C93,130.1,92.1,130.5,91.2,130.5z"/>
								</g>
							</g>
							<g>
								<g>
									<path class="st0" d="M423.3,386.8c-0.7,0-1.3-0.2-1.9-0.6L406.9,375c-1.3-1-1.6-3-0.6-4.3c1-1.3,3-1.6,4.3-0.6l14.5,11.2
										c1.3,1,1.6,3,0.6,4.3C425.2,386.4,424.3,386.8,423.3,386.8z"/>
								</g>
							</g>
						</g>
						<g>
							<g>
								<g>
									<path class="st0" d="M372.6,94.3c-0.7,0-1.3-0.2-1.9-0.6c-1.3-1-1.6-3-0.6-4.3l11.2-14.5c1-1.3,3-1.6,4.3-0.6
										c1.3,1,1.6,3,0.6,4.3L375,93.1C374.4,93.8,373.5,94.3,372.6,94.3z"/>
								</g>
							</g>
							<g>
								<g>
									<path class="st0" d="M116.2,426.4c-0.7,0-1.3-0.2-1.9-0.6c-1.3-1-1.6-3-0.6-4.3l11.2-14.5c1-1.3,3-1.6,4.3-0.6
										c1.3,1,1.6,3,0.6,4.3l-11.2,14.5C118,426,117.1,426.4,116.2,426.4z"/>
								</g>
							</g>
						</g>
					</g>
				</g>
				<g>
					<g>
						<g>
							<g>
								<g>
									<path class="st0" d="M328.2,68.3c-0.4,0-0.8-0.1-1.2-0.2c-1.6-0.7-2.3-2.5-1.6-4l7.2-16.9c0.7-1.6,2.5-2.3,4-1.6
										c1.6,0.7,2.3,2.5,1.6,4L331,66.5C330.6,67.6,329.4,68.3,328.2,68.3z"/>
								</g>
							</g>
							<g>
								<g>
									<path class="st0" d="M164.6,454.7c-0.4,0-0.8-0.1-1.2-0.2c-1.6-0.7-2.3-2.5-1.6-4l7.2-16.9c0.7-1.6,2.5-2.3,4-1.6
										c1.6,0.7,2.3,2.5,1.6,4l-7.2,16.9C166.9,454,165.8,454.7,164.6,454.7z"/>
								</g>
							</g>
						</g>
						<g>
							<g>
								<g>
									<path class="st0" d="M451.6,338.5c-0.4,0-0.8-0.1-1.2-0.2l-16.9-7.2c-1.6-0.7-2.3-2.5-1.6-4c0.7-1.6,2.5-2.3,4-1.6
										l16.9,7.2c1.6,0.7,2.3,2.5,1.6,4C453.9,337.8,452.8,338.5,451.6,338.5z"/>
								</g>
							</g>
							<g>
								<g>
									<path class="st0" d="M65.3,174.8c-0.4,0-0.8-0.1-1.2-0.2l-16.9-7.2c-1.6-0.7-2.3-2.5-1.6-4c0.7-1.6,2.5-2.3,4-1.6l16.9,7.2
										c1.6,0.7,2.3,2.5,1.6,4C67.6,174.1,66.5,174.8,65.3,174.8z"/>
								</g>
							</g>
						</g>
					</g>
					<g>
						<g>
							<g>
								<g>
									<path class="st0" d="M225.4,54c-1.5,0-2.8-1.1-3-2.7l-2.3-18.2c-0.2-1.7,1-3.2,2.7-3.4c1.7-0.2,3.2,1,3.4,2.7l2.3,18.2
										c0.2,1.7-1,3.2-2.7,3.4C225.6,54,225.5,54,225.4,54z"/>
								</g>
							</g>
							<g>
								<g>
									<path class="st0" d="M276.9,470.4c-1.5,0-2.8-1.1-3-2.7l-2.3-18.2c-0.2-1.7,1-3.2,2.7-3.4c1.7-0.2,3.2,1,3.4,2.7l2.3,18.2
										c0.2,1.7-1,3.2-2.7,3.4C277.1,470.4,277,470.4,276.9,470.4z"/>
								</g>
							</g>
						</g>
						<g>
							<g>
								<g>
									<path class="st0" d="M449.1,228.5c-1.5,0-2.8-1.1-3-2.7c-0.2-1.7,1-3.2,2.7-3.4l18.2-2.3c1.7-0.2,3.2,1,3.4,2.7
										c0.2,1.7-1,3.2-2.7,3.4l-18.2,2.3C449.3,228.4,449.2,228.5,449.1,228.5z"/>
								</g>
							</g>
							<g>
								<g>
									<path class="st0" d="M32.7,279.9c-1.5,0-2.8-1.1-3-2.7c-0.2-1.7,1-3.2,2.7-3.4l18.2-2.3c1.7-0.2,3.2,1,3.4,2.7
										c0.2,1.7-1,3.2-2.7,3.4l-18.2,2.3C32.9,279.9,32.8,279.9,32.7,279.9z"/>
								</g>
							</g>
						</g>
					</g>
					<g>
						<g>
							<g>
								<g>
									<path class="st0" d="M129.2,93c-0.9,0-1.8-0.4-2.4-1.2l-11.1-14.7c-1-1.3-0.7-3.3,0.6-4.3c1.3-1,3.3-0.7,4.3,0.6l11.1,14.7
										c1,1.3,0.7,3.3-0.6,4.3C130.4,92.8,129.8,93,129.2,93z"/>
								</g>
							</g>
							<g>
								<g>
									<path class="st0" d="M381.9,427.8c-0.9,0-1.8-0.4-2.4-1.2l-11.1-14.7c-1-1.3-0.7-3.3,0.6-4.3c1.3-1,3.3-0.7,4.3,0.6
										l11.1,14.7c1,1.3,0.7,3.3-0.6,4.3C383.2,427.6,382.6,427.8,381.9,427.8z"/>
								</g>
							</g>
						</g>
						<g>
							<g>
								<g>
									<path class="st0" d="M410.1,132.2c-0.9,0-1.8-0.4-2.4-1.2c-1-1.3-0.7-3.3,0.6-4.3l14.7-11.1c1.3-1,3.3-0.7,4.3,0.6
										c1,1.3,0.7,3.3-0.6,4.3l-14.7,11.1C411.4,132,410.8,132.2,410.1,132.2z"/>
								</g>
							</g>
							<g>
								<g>
									<path class="st0" d="M75.2,385c-0.9,0-1.8-0.4-2.4-1.2c-1-1.3-0.7-3.3,0.6-4.3l14.7-11.1c1.3-1,3.3-0.7,4.3,0.6
										c1,1.3,0.7,3.3-0.6,4.3l-14.7,11.1C76.5,384.8,75.9,385,75.2,385z"/>
								</g>
							</g>
						</g>
					</g>
				</g>
			</g>
			<g>
				<g>
					<path class="st0" d="M119.9,187c-0.4,0.7-0.9,1.1-1.6,1.3c-0.7,0.2-1.4,0.1-2-0.2l-28.4-15.9c-0.6-0.3-1-0.7-1.2-1.3
						c-0.2-0.6-0.3-1.2-0.1-1.8c0.2-0.6,0.5-1.1,1-1.5c0.5-0.4,1.1-0.5,1.8-0.4c1.8,0.1,3.6,0.3,5.4,0.4c1.5,0.1,3.2,0.3,5,0.3
						c1.8,0.1,3.4,0.2,4.9,0.3c-0.9-1.2-1.9-2.6-2.9-4c-1-1.4-2-2.8-2.9-4c-1-1.4-2.1-2.9-3.1-4.4c-0.4-0.6-0.6-1.1-0.5-1.7
						c0-0.6,0.3-1.2,0.7-1.6c0.4-0.5,1-0.8,1.6-0.9c0.6-0.1,1.2,0,1.8,0.3l28.4,15.9c0.7,0.4,1.1,0.9,1.3,1.6c0.2,0.7,0.1,1.4-0.2,2
						c-0.4,0.7-0.9,1.1-1.6,1.3c-0.7,0.2-1.4,0.1-2-0.2l-17.9-10c0.6,0.9,1.3,1.8,1.9,2.7c0.6,0.9,1.2,1.6,1.6,2.3
						c0.6,0.8,1.1,1.6,1.6,2.3c0.3,0.4,0.5,0.9,0.5,1.4s-0.1,1-0.3,1.5c-0.6,1-1.4,1.5-2.6,1.4c-0.9,0-1.9-0.1-2.9-0.2
						c-0.8,0-1.8-0.1-2.9-0.2c-1.1-0.1-2.1-0.2-3.2-0.3l17.9,10c0.7,0.4,1.1,0.9,1.3,1.6C120.3,185.6,120.2,186.3,119.9,187z"/>
				</g>
				<g>
					<path class="st0" d="M135.7,161.7c-0.5,0.6-1.1,0.9-1.8,1c-0.7,0.1-1.4-0.1-2-0.5l-25.8-19.8c-0.6-0.5-0.9-1-1-1.8
						c-0.1-0.7,0.1-1.4,0.5-2c0.5-0.6,1-0.9,1.8-1c0.7-0.1,1.4,0.1,2,0.5l25.8,19.8c0.6,0.5,0.9,1.1,1,1.8
						C136.3,160.5,136.2,161.1,135.7,161.7z"/>
				</g>
				<g>
					<path class="st0" d="M141.5,153c-0.7,0-1.4-0.2-1.9-0.8l-23.2-22.5c-0.5-0.5-0.8-1.1-0.8-1.9s0.2-1.4,0.8-1.9
						c0.5-0.5,1.1-0.8,1.9-0.8c0.7,0,1.4,0.2,1.9,0.8l21.2,20.6l5.9-6.1c0.5-0.5,1.1-0.8,1.9-0.8c0.7,0,1.4,0.2,1.9,0.8
						c0.5,0.5,0.8,1.2,0.8,1.9c0,0.7-0.2,1.4-0.8,1.9l-7.8,8C142.9,152.7,142.2,153,141.5,153z"/>
				</g>
				<g>
					<path class="st0" d="M169.3,125c0.6,0.4,1.1,0.9,1.3,1.6c0.2,0.7,0.2,1.4-0.2,2c-0.3,0.7-0.8,1.1-1.5,1.3
						c-0.7,0.2-1.4,0.2-2.1-0.2l-15.1-7.7l0.1,3.6l6.8,8.9c0.5,0.6,0.6,1.3,0.5,2c-0.1,0.7-0.4,1.3-1,1.8c-0.6,0.5-1.3,0.6-2,0.5
						c-0.7-0.1-1.3-0.4-1.8-1L134.7,112c-0.5-0.6-0.6-1.3-0.5-2s0.4-1.3,1-1.8c0.6-0.5,1.3-0.6,2-0.5c0.7,0.1,1.3,0.4,1.8,1l7.3,9.6
						l-0.5-16.7c0-0.7,0.3-1.4,0.8-1.9c0.5-0.5,1.1-0.8,1.9-0.8c0.8-0.1,1.4,0.2,1.9,0.7c0.5,0.5,0.8,1.2,0.8,1.9l0.5,14.5
						L169.3,125z"/>
				</g>
				<g>
					<path class="st0" d="M191.8,117.3c-1,0.2-2.1,0.1-3.1-0.1c-1-0.2-2-0.5-2.8-1c-0.9-0.5-1.7-1.1-2.4-1.9
						c-0.7-0.8-1.2-1.6-1.7-2.6l-7.5-17.5c-0.4-1-0.7-2-0.7-3c-0.1-1,0-2.1,0.3-3c0.3-1,0.7-1.9,1.2-2.8c0.6-0.9,1.3-1.6,2.1-2.3
						c1.7-1.3,3.6-2,5.7-2c2.1,0,4,0.6,5.7,1.9c0.6,0.4,1,1,1.1,1.7c0.1,0.7-0.1,1.4-0.5,2c-0.4,0.6-1,0.9-1.8,1
						c-0.7,0.1-1.4-0.1-2-0.5c-0.7-0.5-1.5-0.8-2.4-0.8c-0.9,0-1.7,0.3-2.5,0.9c-0.7,0.5-1.2,1.3-1.4,2.2c-0.2,0.9-0.2,1.7,0.2,2.6
						l7.5,17.5c0.4,0.9,0.9,1.5,1.7,1.9c0.8,0.4,1.6,0.6,2.5,0.5c0.9-0.1,1.7-0.5,2.3-1.2c0.6-0.7,1-1.4,1.1-2.3
						c0.1-0.7,0.5-1.4,1.1-1.8c0.6-0.5,1.2-0.7,2-0.6c0.7,0.1,1.4,0.5,1.8,1.1c0.5,0.6,0.6,1.2,0.5,2c-0.3,2.1-1.1,4-2.6,5.5
						C195.8,116.1,194,117,191.8,117.3z"/>
				</g>
				<g>
					<path class="st0" d="M215.2,109.7c-1.3,0.3-2.5,0.4-3.7,0.2c-1.2-0.2-2.4-0.6-3.4-1.2c-1-0.6-1.9-1.4-2.7-2.4
						c-0.7-1-1.3-2.1-1.6-3.4l-4.6-18.5c-0.3-1.3-0.4-2.5-0.2-3.7c0.2-1.2,0.6-2.4,1.2-3.4c0.6-1,1.4-1.9,2.4-2.7
						c1-0.7,2.1-1.3,3.4-1.6c1.3-0.3,2.5-0.4,3.7-0.2c1.2,0.2,2.4,0.6,3.4,1.2c1,0.6,1.9,1.4,2.7,2.4c0.7,1,1.3,2.1,1.6,3.4
						l4.6,18.5c0.3,1.3,0.4,2.5,0.2,3.7c-0.2,1.2-0.6,2.4-1.2,3.4c-0.6,1-1.4,1.9-2.4,2.7C217.6,108.8,216.5,109.3,215.2,109.7z
						 M207.4,78.1c-1.1,0.3-1.9,0.9-2.5,1.8c-0.6,1-0.7,2-0.5,3.1l4.6,18.5c0.3,1.1,0.9,1.9,1.8,2.5c1,0.6,2,0.7,3.1,0.5
						c1.1-0.3,1.9-0.9,2.5-1.8c0.6-1,0.7-2,0.5-3.1l-4.6-18.5c-0.3-1.1-0.9-1.9-1.8-2.5C209.5,78,208.4,77.8,207.4,78.1z"/>
				</g>
				<g>
					<path class="st0" d="M248.8,105.1c-0.6,0.2-1.2,0.2-1.8-0.1c-0.6-0.2-1-0.6-1.3-1.2c-1.3-2.3-2.6-4.7-4-7.1
						c-1.2-2.1-2.5-4.3-3.9-6.8c-1.4-2.5-2.8-4.9-4.1-7.3l1.4,20.7c0,0.7-0.2,1.4-0.7,2c-0.5,0.6-1.1,0.9-1.8,0.9
						c-0.7,0-1.4-0.2-2-0.7c-0.6-0.5-0.9-1.1-0.9-1.8l-2.1-32.4c0-0.6,0.1-1.2,0.4-1.7c0.3-0.5,0.8-0.9,1.4-1.1
						c0.6-0.2,1.2-0.2,1.8,0.1c0.6,0.2,1,0.6,1.3,1.2c1.3,2.3,2.6,4.7,4,7.1c1.2,2.1,2.5,4.3,3.9,6.8c1.4,2.5,2.8,4.9,4.1,7.3
						l-1.4-20.7c0-0.7,0.2-1.4,0.7-2c0.5-0.6,1.1-0.9,1.8-0.9c0.7-0.1,1.4,0.2,2,0.7c0.6,0.5,0.9,1.1,0.9,1.8l2.1,32.4
						c0,0.6-0.1,1.2-0.5,1.7C249.8,104.6,249.4,104.9,248.8,105.1z"/>
				</g>
				<g>
					<path class="st0" d="M275.9,107.5c-0.6,0.1-1.2-0.1-1.8-0.4c-0.5-0.3-0.9-0.8-1.1-1.4c-0.8-2.5-1.7-5.1-2.6-7.7
						c-0.8-2.2-1.6-4.7-2.6-7.4c-0.9-2.7-1.8-5.3-2.7-7.9l-2.5,20.6c-0.1,0.7-0.4,1.3-1,1.8c-0.6,0.5-1.2,0.6-2,0.5
						c-0.7-0.1-1.3-0.4-1.8-1c-0.5-0.6-0.6-1.2-0.5-2l3.9-32.3c0.1-0.6,0.3-1.2,0.8-1.6c0.4-0.4,1-0.7,1.6-0.8
						c0.6-0.1,1.2,0.1,1.7,0.4c0.5,0.3,0.9,0.8,1.1,1.4c0.8,2.5,1.7,5.1,2.6,7.7c0.8,2.2,1.6,4.7,2.5,7.4c0.9,2.7,1.8,5.3,2.7,7.9
						l2.5-20.6c0.1-0.7,0.4-1.3,1-1.8c0.6-0.5,1.2-0.6,2-0.5s1.3,0.4,1.8,1c0.5,0.6,0.6,1.2,0.5,2l-3.9,32.3
						c-0.1,0.6-0.3,1.2-0.8,1.6C277,107.1,276.5,107.4,275.9,107.5z"/>
				</g>
				<g>
					<path class="st0" d="M295.3,74.2c0.6-0.4,1.3-0.4,2.1-0.2l10.7,3.2c0.7,0.2,1.3,0.6,1.6,1.3c0.4,0.6,0.4,1.3,0.2,2
						c-0.2,0.7-0.6,1.3-1.3,1.6c-0.6,0.4-1.3,0.4-2.1,0.2l-8.2-2.4l-2.9,9.7l7.1,2.1c0.7,0.2,1.2,0.6,1.6,1.3c0.4,0.7,0.4,1.3,0.2,2
						c-0.2,0.7-0.6,1.3-1.3,1.6c-0.7,0.4-1.3,0.4-2.1,0.2l-7.1-2.1l-3.2,10.7l8.2,2.4c0.7,0.2,1.3,0.6,1.6,1.3
						c0.4,0.7,0.4,1.3,0.2,2c-0.2,0.7-0.6,1.3-1.3,1.6c-0.7,0.4-1.3,0.4-2,0.2l-10.7-3.2c-0.7-0.2-1.2-0.6-1.6-1.3
						c-0.4-0.6-0.4-1.3-0.2-2.1l9.1-30.7C294.3,75.1,294.7,74.6,295.3,74.2z"/>
				</g>
				<g>
					<path class="st0" d="M310.2,118.2c-0.8-0.7-1.5-1.4-2-2.3c-0.5-0.9-0.9-1.8-1.1-2.8c-0.2-1-0.3-2-0.2-3c0.1-1,0.4-2,0.9-3
						l8.1-17.2c0.4-0.9,1-1.8,1.8-2.5c0.7-0.8,1.5-1.4,2.4-1.8c0.9-0.5,1.9-0.8,2.9-0.9c1-0.2,2-0.1,3.1,0.1
						c2.1,0.4,3.9,1.4,5.3,2.9c1.4,1.6,2.2,3.4,2.4,5.6c0.1,0.7-0.1,1.4-0.6,2c-0.5,0.6-1.1,0.9-1.9,1c-0.7,0.1-1.4-0.1-1.9-0.6
						c-0.6-0.5-0.9-1.1-1-1.9c-0.1-0.9-0.4-1.7-1-2.4c-0.6-0.7-1.4-1.1-2.3-1.2c-0.9-0.2-1.7,0-2.5,0.4c-0.8,0.4-1.4,1-1.8,1.8
						l-8.1,17.2c-0.4,0.8-0.5,1.7-0.3,2.6c0.2,0.9,0.6,1.6,1.3,2.2c0.7,0.6,1.5,0.9,2.4,0.9c0.9,0,1.7-0.2,2.5-0.7
						c0.6-0.4,1.3-0.5,2.1-0.4c0.7,0.1,1.3,0.5,1.7,1.1c0.4,0.6,0.5,1.3,0.4,2.1c-0.1,0.7-0.5,1.3-1.1,1.7c-1.8,1.2-3.7,1.8-5.8,1.7
						C313.7,120.3,311.8,119.6,310.2,118.2z"/>
				</g>
				<g>
					<path class="st0" d="M357.8,103c0.6,0.4,1,1,1.1,1.7c0.1,0.7,0,1.4-0.4,2c-0.4,0.6-1,1-1.7,1.1c-0.7,0.1-1.4,0-2-0.4l-3.8-2.6
						l-16.6,24.5c-0.4,0.6-1,1-1.7,1.1c-0.7,0.1-1.4,0-2-0.4c-0.6-0.4-1-1-1.1-1.7c-0.1-0.7,0-1.4,0.4-2l16.6-24.5l-3.8-2.6
						c-0.6-0.4-1-1-1.1-1.7c-0.1-0.7,0-1.4,0.4-2c0.4-0.6,1-1,1.7-1.1c0.7-0.1,1.4,0,2,0.4L357.8,103z"/>
				</g>
				<g>
					<path class="st0" d="M344.3,140.6c-0.6-0.5-0.9-1.1-0.9-1.8c-0.1-0.7,0.2-1.4,0.7-2l21.3-24.5c0.5-0.6,1.1-0.9,1.8-0.9
						c0.7-0.1,1.4,0.2,2,0.7c0.6,0.5,0.9,1.1,0.9,1.8c0.1,0.7-0.2,1.4-0.7,2l-21.3,24.5c-0.5,0.6-1.1,0.9-1.8,0.9
						C345.5,141.3,344.8,141.1,344.3,140.6z"/>
				</g>
				<g>
					<path class="st0" d="M357.2,153.3c-0.9-1-1.5-2-1.9-3.2c-0.4-1.2-0.6-2.4-0.5-3.6c0.1-1.2,0.3-2.4,0.9-3.5
						c0.5-1.1,1.3-2.1,2.2-3l14.1-12.8c1-0.9,2-1.5,3.2-1.9c1.2-0.4,2.4-0.6,3.6-0.5c1.2,0.1,2.4,0.3,3.5,0.9c1.1,0.5,2.1,1.3,3,2.2
						c0.9,1,1.5,2,1.9,3.2c0.4,1.2,0.6,2.4,0.5,3.6c-0.1,1.2-0.3,2.4-0.9,3.5c-0.5,1.1-1.3,2.1-2.2,3L370.5,154
						c-1,0.9-2,1.5-3.2,1.9c-1.2,0.4-2.4,0.6-3.6,0.5c-1.2-0.1-2.4-0.3-3.5-0.9C359.1,155,358.1,154.3,357.2,153.3z M381.3,131.5
						c-0.8-0.8-1.7-1.3-2.8-1.3c-1.1-0.1-2.1,0.3-2.9,1L361.5,144c-0.8,0.8-1.3,1.7-1.3,2.8s0.3,2.1,1,2.9c0.8,0.8,1.7,1.3,2.8,1.3
						c1.1,0.1,2.1-0.3,2.9-1l14.1-12.8c0.8-0.8,1.3-1.7,1.3-2.8S382.1,132.3,381.3,131.5z"/>
				</g>
				<g>
					<path class="st0" d="M377,180.9c-0.5-0.5-0.7-1-0.8-1.6c-0.1-0.6,0.1-1.2,0.4-1.7c1.4-2.2,2.9-4.5,4.4-6.9
						c1.3-2,2.7-4.2,4.2-6.6c1.5-2.4,3-4.8,4.5-7l-17.6,10.9c-0.6,0.4-1.3,0.5-2,0.3c-0.7-0.2-1.3-0.6-1.7-1.2
						c-0.4-0.6-0.5-1.3-0.3-2c0.2-0.7,0.6-1.3,1.2-1.7l27.6-17.1c0.5-0.3,1.1-0.5,1.7-0.4c0.6,0.1,1.1,0.3,1.6,0.8
						c0.5,0.5,0.7,1,0.8,1.6c0,0.6-0.1,1.2-0.4,1.7c-1.4,2.2-2.9,4.5-4.4,6.9c-1.3,2-2.7,4.2-4.2,6.6c-1.5,2.4-3,4.8-4.5,7.1
						l17.6-10.9c0.6-0.4,1.3-0.5,2-0.3c0.7,0.2,1.3,0.6,1.7,1.2c0.4,0.6,0.5,1.3,0.3,2c-0.2,0.7-0.6,1.3-1.2,1.7l-27.6,17.1
						c-0.5,0.3-1.1,0.5-1.7,0.4C378,181.6,377.4,181.3,377,180.9z"/>
				</g>
			</g>
			<g>
				<g>
					<g>
						<path class="st0" d="M247.1,82.5"/>
					</g>
				</g>
				<g>
					<g>
						<path class="st1" d="M247.1,82.5"/>
					</g>
				</g>
			</g>
			<g>
				<g>
					<path class="st0" d="M250,453.4c-27.4,0-54-5.4-79-16c-24.2-10.2-45.9-24.9-64.5-43.5c-18.6-18.6-33.3-40.4-43.5-64.5
						c-10.6-25-16-51.6-16-79s5.4-54,16-79c10.2-24.2,24.9-45.9,43.5-64.5c18.6-18.6,40.4-33.3,64.5-43.5c25-10.6,51.6-16,79-16
						c27.4,0,54,5.4,79,16c24.2,10.2,45.9,24.9,64.5,43.5c18.6,18.6,33.3,40.4,43.5,64.5c10.6,25,16,51.6,16,79s-5.4,54-16,79
						c-10.2,24.2-24.9,45.9-43.5,64.5c-18.6,18.6-40.4,33.3-64.5,43.5C304,448.1,277.4,453.4,250,453.4z M250,52.7
						c-26.7,0-52.6,5.2-77,15.5c-23.5,10-44.7,24.2-62.8,42.4c-18.2,18.2-32.4,39.3-42.4,62.8c-10.3,24.4-15.5,50.3-15.5,77
						c0,26.7,5.2,52.6,15.5,77c10,23.5,24.2,44.7,42.4,62.8c18.2,18.2,39.3,32.4,62.8,42.4c24.4,10.3,50.3,15.5,77,15.5
						c26.7,0,52.6-5.2,77-15.5c23.5-10,44.7-24.2,62.8-42.4c18.2-18.2,32.4-39.3,42.4-62.8c10.3-24.4,15.5-50.3,15.5-77
						c0-26.7-5.2-52.6-15.5-77c-10-23.5-24.2-44.7-42.4-62.8c-18.2-18.2-39.3-32.4-62.8-42.4C302.6,57.9,276.7,52.7,250,52.7z"/>
				</g>
			</g>
		</g>
		<circle class="st2" cx="250" cy="249.4" r="182.7"/>
		<text transform="matrix(0.9542 0.2992 -0.2992 0.9542 189.9902 422.1909)"><tspan x="0" y="0" class="st0 st3 st4">g</tspan><tspan x="13" y="-0.1" class="st0 st3 st4" rotate="-4">e</tspan><tspan x="25.5" y="-1" class="st0 st3 st4" rotate="-8">e</tspan><tspan x="37.8" y="-2.8" class="st0 st3 st4" rotate="-11.9">k</tspan><tspan x="50.4" y="-5.6" class="st0 st3 st4" rotate="-15.8">a</tspan><tspan x="61.7" y="-8.8" class="st0 st3 st4" rotate="-19.2">t</tspan><tspan x="71.4" y="-12.3" class="st0 st3 st4" rotate="-22.4">r</tspan><tspan x="81.1" y="-16.3" class="st0 st3 st4" rotate="-26">o</tspan><tspan x="92.5" y="-21.9" class="st0 st3 st4" rotate="-30.1">n</tspan><tspan x="103.9" y="-28.6" class="st0 st3 st4" rotate="-34">s</tspan></text>
	</g>
</g>
</svg>
