<svg xmlns="http://www.w3.org/2000/svg" xmlns:xlink="http://www.w3.org/1999/xlink" width="500" height="500" viewBox="0 0 500 500"><style>.st0{fill:#231f20}.st1{stroke:#231f20;stroke-width:20;stroke-linecap:round;stroke-miterlimit:10}.st1,.st2{fill:none}.st3{font-family:&amp;apos;Miso-Bold&amp;apos;}.st4{font-size:28.59px}</style><g id="Layer_2"><g id="o7weua_1_"><image width="260" height="194" id="o7weua_2_" xlink:href="A3FF2E1E41B37CC2.png" transform="translate(114.131 162.623) scale(1.0454)" overflow="visible"/></g><path class="st0" d="M250 483.2c-31.5 0-62-6.2-90.8-18.3-27.8-11.7-52.7-28.6-74.1-50-21.4-21.4-38.2-46.4-50-74.1C23 312 16.8 281.5 16.8 250s6.2-62 18.3-90.8c11.7-27.8 28.6-52.7 50-74.1 21.4-21.4 46.4-38.2 74.1-50C188 23 218.5 16.8 250 16.8s62 6.2 90.8 18.3c27.8 11.7 52.7 28.6 74.1 50 21.4 21.4 38.2 46.4 50 74.1 12.2 28.8 18.3 59.3 18.3 90.8s-6.2 62-18.3 90.8c-11.7 27.8-28.6 52.7-50 74.1-21.4 21.4-46.4 38.2-74.1 50-28.8 12.1-59.3 18.3-90.8 18.3zm0-460.3c-30.7 0-60.4 6-88.4 17.8-27 11.4-51.3 27.8-72.2 48.7-20.9 20.9-37.2 45.1-48.7 72.2-11.8 28-17.8 57.7-17.8 88.4 0 30.7 6 60.4 17.8 88.4 11.4 27 27.8 51.3 48.7 72.2 20.9 20.9 45.1 37.2 72.2 48.7 28 11.8 57.7 17.8 88.4 17.8 30.7 0 60.4-6 88.4-17.8 27-11.4 51.3-27.8 72.2-48.7 20.9-20.9 37.2-45.1 48.7-72.2 11.8-28 17.8-57.7 17.8-88.4 0-30.7-6-60.4-17.8-88.4-11.4-27-27.8-51.3-48.7-72.2-20.9-20.9-45.1-37.2-72.2-48.7-28-11.8-57.7-17.8-88.4-17.8z"/><path class="st0" d="M250 499c-33.6 0-66.2-6.6-96.9-19.6-29.7-12.5-56.3-30.5-79.1-53.4-22.9-22.9-40.8-49.5-53.4-79.1C7.6 316.2 1 283.6 1 250c0-33.6 6.6-66.2 19.6-96.9C33.1 123.4 51.1 96.8 74 74c22.9-22.9 49.5-40.8 79.1-53.4C183.8 7.6 216.4 1 250 1c33.6 0 66.2 6.6 96.9 19.6C376.6 33.1 403.2 51.1 426 74c22.9 22.9 40.8 49.5 53.4 79.1 13 30.7 19.6 63.3 19.6 96.9 0 33.6-6.6 66.2-19.6 96.9-12.5 29.7-30.5 56.3-53.4 79.1-22.9 22.9-49.5 40.8-79.1 53.4-30.7 13-63.3 19.6-96.9 19.6zm0-491.9c-32.8 0-64.6 6.4-94.5 19.1-28.9 12.2-54.9 29.7-77.2 52.1-22.3 22.3-39.8 48.3-52.1 77.2C13.5 185.4 7.1 217.2 7.1 250s6.4 64.6 19.1 94.5c12.2 28.9 29.7 54.9 52.1 77.2 22.3 22.3 48.3 39.8 77.2 52.1 29.9 12.7 61.8 19.1 94.5 19.1 32.8 0 64.6-6.4 94.5-19.1 28.9-12.2 54.9-29.7 77.2-52.1 22.3-22.3 39.8-48.3 52.1-77.2 12.7-29.9 19.1-61.8 19.1-94.5 0-32.8-6.4-64.6-19.1-94.5-12.2-28.9-29.7-54.9-52.1-77.2-22.3-22.3-48.3-39.8-77.2-52.1C314.6 13.5 282.8 7.1 250 7.1z"/><path class="st0" d="M250 44.4c-1.7 0-3.1-1.4-3.1-3.1V22.2c0-1.7 1.4-3.1 3.1-3.1 1.7 0 3.1 1.4 3.1 3.1v19.1c0 1.7-1.4 3.1-3.1 3.1zM250 480.9c-1.7 0-3.1-1.4-3.1-3.1v-19.1c0-1.7 1.4-3.1 3.1-3.1 1.7 0 3.1 1.4 3.1 3.1v19.1c0 1.7-1.4 3.1-3.1 3.1zM477.8 253.1h-19.1c-1.7 0-3.1-1.4-3.1-3.1 0-1.7 1.4-3.1 3.1-3.1h19.1c1.7 0 3.1 1.4 3.1 3.1 0 1.7-1.4 3.1-3.1 3.1zM41.3 253.1H22.2c-1.7 0-3.1-1.4-3.1-3.1 0-1.7 1.4-3.1 3.1-3.1h19.1c1.7 0 3.1 1.4 3.1 3.1 0 1.7-1.4 3.1-3.1 3.1zM145.7 72.3c-1.1 0-2.1-.5-2.7-1.5l-9.6-16.5c-.8-1.5-.3-3.3 1.1-4.2 1.5-.8 3.3-.3 4.2 1.1l9.6 16.5c.8 1.5.3 3.3-1.1 4.2-.5.3-1 .4-1.5.4zM363.9 450.3c-1.1 0-2.1-.5-2.7-1.5l-9.6-16.5c-.8-1.5-.3-3.3 1.1-4.2 1.5-.8 3.3-.3 4.2 1.1l9.6 16.5c.8 1.5.3 3.3-1.1 4.2-.4.3-1 .4-1.5.4z"/><g><path class="st0" d="M430.7 148.7c-1.1 0-2.1-.5-2.7-1.5-.8-1.5-.3-3.3 1.1-4.2l16.5-9.6c1.5-.8 3.3-.3 4.2 1.1.8 1.5.3 3.3-1.1 4.2l-16.5 9.6c-.4.3-.9.4-1.5.4zM52.7 367c-1.1 0-2.1-.5-2.7-1.5-.8-1.5-.3-3.3 1.1-4.2l16.5-9.6c1.5-.8 3.3-.3 4.2 1.1.8 1.5.3 3.3-1.1 4.2l-16.5 9.6c-.4.2-1 .4-1.5.4z"/></g><g><path class="st0" d="M69.3 148.7c-.5 0-1-.1-1.5-.4l-16.5-9.6c-1.5-.8-2-2.7-1.1-4.2.8-1.5 2.7-2 4.2-1.1l16.5 9.6c1.5.8 2 2.7 1.1 4.2-.7 1-1.7 1.5-2.7 1.5zM447.3 367c-.5 0-1-.1-1.5-.4l-16.5-9.6c-1.5-.8-2-2.7-1.1-4.2.8-1.5 2.7-2 4.2-1.1l16.5 9.6c1.5.8 2 2.7 1.1 4.2-.6.9-1.7 1.5-2.7 1.5z"/><g><path class="st0" d="M354.3 72.3c-.5 0-1-.1-1.5-.4-1.5-.8-2-2.7-1.1-4.2l9.6-16.5c.8-1.5 2.7-2 4.2-1.1 1.5.8 2 2.7 1.1 4.2L357 70.8c-.6 1-1.6 1.5-2.7 1.5zM136.1 450.3c-.5 0-1-.1-1.5-.4-1.5-.8-2-2.7-1.1-4.2l9.6-16.5c.8-1.5 2.7-2 4.2-1.1 1.5.8 2 2.7 1.1 4.2l-9.6 16.5c-.6 1-1.6 1.5-2.7 1.5z"/></g></g><g><path class="st0" d="M305.1 51.8c-.3 0-.5 0-.8-.1-1.6-.4-2.6-2.1-2.1-3.8l5-18.4c.4-1.6 2.1-2.6 3.8-2.1 1.6.4 2.6 2.1 2.1 3.8l-5 18.4c-.5 1.3-1.7 2.2-3 2.2zM189.9 472.8c-.3 0-.5 0-.8-.1-1.6-.4-2.6-2.1-2.1-3.8l5-18.4c.4-1.6 2.1-2.6 3.8-2.1 1.6.4 2.6 2.1 2.1 3.8l-5 18.4c-.4 1.3-1.6 2.2-3 2.2zM469.7 313.2c-.3 0-.5 0-.8-.1l-18.4-5c-1.6-.4-2.6-2.1-2.1-3.8.4-1.6 2.1-2.6 3.8-2.1l18.4 5c1.6.4 2.6 2.1 2.1 3.8-.4 1.3-1.6 2.2-3 2.2zM48.7 198c-.3 0-.5 0-.8-.1l-18.4-5c-1.6-.4-2.6-2.1-2.1-3.8.4-1.6 2.1-2.6 3.8-2.1l18.4 5c1.6.4 2.6 2.1 2.1 3.8-.4 1.3-1.7 2.2-3 2.2z"/><g><path class="st0" d="M197 51.2c-1.4 0-2.6-.9-3-2.3l-4.9-18.5c-.4-1.6.5-3.3 2.2-3.7 1.6-.4 3.3.5 3.7 2.2l4.9 18.5c.4 1.6-.5 3.3-2.2 3.7-.2.1-.4.1-.7.1zM307.8 473.4c-1.4 0-2.6-.9-3-2.3l-4.9-18.5c-.4-1.6.5-3.3 2.2-3.7 1.6-.4 3.3.5 3.7 2.2l4.9 18.5c.4 1.6-.5 3.3-2.2 3.7-.2.1-.4.1-.7.1z"/><g><path class="st0" d="M451.9 200.1c-1.4 0-2.6-.9-3-2.3-.4-1.6.5-3.3 2.2-3.7l18.5-4.9c1.6-.4 3.3.5 3.7 2.2.4 1.6-.5 3.3-2.2 3.7l-18.5 4.9c-.2.1-.5.1-.7.1zM29.7 310.9c-1.4 0-2.6-.9-3-2.3-.4-1.6.5-3.3 2.2-3.7l18.5-4.9c1.6-.4 3.3.5 3.7 2.2.4 1.6-.5 3.3-2.2 3.7l-18.5 4.9c-.2.1-.5.1-.7.1z"/></g></g><g><path class="st0" d="M103.2 104.7c-.8 0-1.6-.3-2.2-.9L87.6 90.2c-1.2-1.2-1.2-3.1 0-4.3 1.2-1.2 3.1-1.2 4.3 0l13.4 13.6c1.2 1.2 1.2 3.1 0 4.3-.6.6-1.3.9-2.1.9zM410.3 415c-.8 0-1.6-.3-2.2-.9l-13.4-13.6c-1.2-1.2-1.2-3.1 0-4.3 1.2-1.2 3.1-1.2 4.3 0l13.4 13.6c1.2 1.2 1.2 3.1 0 4.3-.6.6-1.4.9-2.1.9z"/><g><path class="st0" d="M398.3 106.2c-.8 0-1.6-.3-2.2-.9-1.2-1.2-1.2-3.1 0-4.3l13.6-13.4c1.2-1.2 3.1-1.2 4.3 0 1.2 1.2 1.2 3.1 0 4.3l-13.6 13.4c-.5.7-1.3.9-2.1.9zM88.1 413.3c-.8 0-1.6-.3-2.2-.9-1.2-1.2-1.2-3.1 0-4.3l13.6-13.4c1.2-1.2 3.1-1.2 4.3 0 1.2 1.2 1.2 3.1 0 4.3l-13.6 13.4c-.6.6-1.3.9-2.1.9z"/></g></g></g><g><path class="st0" d="M276.7 54.3h-.4c-1.7-.2-2.8-1.8-2.6-3.4l2.4-18.2c.2-1.7 1.8-2.9 3.4-2.6 1.7.2 2.8 1.8 2.6 3.4l-2.4 18.2c-.1 1.4-1.5 2.6-3 2.6zM220.8 470.1h-.4c-1.7-.2-2.8-1.8-2.6-3.4l2.4-18.2c.2-1.7 1.8-2.8 3.4-2.6 1.7.2 2.8 1.8 2.6 3.4l-2.4 18.2c-.2 1.5-1.5 2.6-3 2.6zM467 282.2h-.4l-18.2-2.4c-1.7-.2-2.8-1.8-2.6-3.4.2-1.7 1.8-2.8 3.4-2.6l18.2 2.4c1.7.2 2.8 1.8 2.6 3.4-.2 1.5-1.5 2.6-3 2.6zM51.2 226.3h-.4l-18.2-2.4c-1.7-.2-2.8-1.8-2.6-3.4.2-1.7 1.8-2.8 3.4-2.6l18.2 2.4c1.7.2 2.8 1.8 2.6 3.4-.2 1.5-1.5 2.6-3 2.6z"/><g><path class="st0" d="M173.8 67.5c-1.2 0-2.3-.7-2.8-1.9l-7-17c-.6-1.6.1-3.3 1.7-4 1.6-.6 3.3.1 4 1.7l7 17c.6 1.6-.1 3.3-1.7 4-.5.1-.9.2-1.2.2zM333.2 455.6c-1.2 0-2.3-.7-2.8-1.9l-7-17c-.6-1.6.1-3.3 1.7-4 1.6-.6 3.3.1 4 1.7l7 17c.6 1.6-.1 3.3-1.7 4-.4.1-.8.2-1.2.2z"/><g><path class="st0" d="M435.5 176.8c-1.2 0-2.3-.7-2.8-1.9-.6-1.6.1-3.3 1.7-4l17-7c1.6-.6 3.3.1 4 1.7.6 1.6-.1 3.3-1.7 4l-17 7c-.4.1-.8.2-1.2.2zM47.5 336.3c-1.2 0-2.3-.7-2.8-1.9-.6-1.6.1-3.3 1.7-4l17-7c1.6-.6 3.3.1 4 1.7.6 1.6-.1 3.3-1.7 4l-17 7c-.4.1-.8.2-1.2.2z"/></g></g><g><path class="st0" d="M91.2 130.5c-.7 0-1.3-.2-1.9-.6l-14.5-11.2c-1.3-1-1.6-3-.6-4.3 1-1.3 3-1.6 4.3-.6L93.1 125c1.3 1 1.6 3 .6 4.3-.7.8-1.6 1.2-2.5 1.2zM423.3 386.8c-.7 0-1.3-.2-1.9-.6L406.9 375c-1.3-1-1.6-3-.6-4.3 1-1.3 3-1.6 4.3-.6l14.5 11.2c1.3 1 1.6 3 .6 4.3-.5.8-1.4 1.2-2.4 1.2z"/><g><path class="st0" d="M372.6 94.3c-.7 0-1.3-.2-1.9-.6-1.3-1-1.6-3-.6-4.3l11.2-14.5c1-1.3 3-1.6 4.3-.6 1.3 1 1.6 3 .6 4.3L375 93.1c-.6.7-1.5 1.2-2.4 1.2zM116.2 426.4c-.7 0-1.3-.2-1.9-.6-1.3-1-1.6-3-.6-4.3l11.2-14.5c1-1.3 3-1.6 4.3-.6 1.3 1 1.6 3 .6 4.3l-11.2 14.5c-.6.8-1.5 1.2-2.4 1.2z"/></g></g><g><path class="st0" d="M328.2 68.3c-.4 0-.8-.1-1.2-.2-1.6-.7-2.3-2.5-1.6-4l7.2-16.9c.7-1.6 2.5-2.3 4-1.6 1.6.7 2.3 2.5 1.6 4L331 66.5c-.4 1.1-1.6 1.8-2.8 1.8zM164.6 454.7c-.4 0-.8-.1-1.2-.2-1.6-.7-2.3-2.5-1.6-4l7.2-16.9c.7-1.6 2.5-2.3 4-1.6 1.6.7 2.3 2.5 1.6 4l-7.2 16.9c-.5 1.1-1.6 1.8-2.8 1.8zM451.6 338.5c-.4 0-.8-.1-1.2-.2l-16.9-7.2c-1.6-.7-2.3-2.5-1.6-4 .7-1.6 2.5-2.3 4-1.6l16.9 7.2c1.6.7 2.3 2.5 1.6 4-.5 1.1-1.6 1.8-2.8 1.8zM65.3 174.8c-.4 0-.8-.1-1.2-.2l-16.9-7.2c-1.6-.7-2.3-2.5-1.6-4 .7-1.6 2.5-2.3 4-1.6l16.9 7.2c1.6.7 2.3 2.5 1.6 4-.5 1.1-1.6 1.8-2.8 1.8z"/><g><path class="st0" d="M225.4 54c-1.5 0-2.8-1.1-3-2.7l-2.3-18.2c-.2-1.7 1-3.2 2.7-3.4 1.7-.2 3.2 1 3.4 2.7l2.3 18.2c.2 1.7-1 3.2-2.7 3.4h-.4zM276.9 470.4c-1.5 0-2.8-1.1-3-2.7l-2.3-18.2c-.2-1.7 1-3.2 2.7-3.4 1.7-.2 3.2 1 3.4 2.7L280 467c.2 1.7-1 3.2-2.7 3.4h-.4z"/><g><path class="st0" d="M449.1 228.5c-1.5 0-2.8-1.1-3-2.7-.2-1.7 1-3.2 2.7-3.4l18.2-2.3c1.7-.2 3.2 1 3.4 2.7.2 1.7-1 3.2-2.7 3.4l-18.2 2.3c-.2-.1-.3 0-.4 0zM32.7 279.9c-1.5 0-2.8-1.1-3-2.7-.2-1.7 1-3.2 2.7-3.4l18.2-2.3c1.7-.2 3.2 1 3.4 2.7.2 1.7-1 3.2-2.7 3.4l-18.2 2.3h-.4z"/></g></g><g><path class="st0" d="M129.2 93c-.9 0-1.8-.4-2.4-1.2l-11.1-14.7c-1-1.3-.7-3.3.6-4.3 1.3-1 3.3-.7 4.3.6l11.1 14.7c1 1.3.7 3.3-.6 4.3-.7.4-1.3.6-1.9.6zM381.9 427.8c-.9 0-1.8-.4-2.4-1.2l-11.1-14.7c-1-1.3-.7-3.3.6-4.3 1.3-1 3.3-.7 4.3.6l11.1 14.7c1 1.3.7 3.3-.6 4.3-.6.4-1.2.6-1.9.6z"/><g><path class="st0" d="M410.1 132.2c-.9 0-1.8-.4-2.4-1.2-1-1.3-.7-3.3.6-4.3l14.7-11.1c1.3-1 3.3-.7 4.3.6 1 1.3.7 3.3-.6 4.3L412 131.6c-.6.4-1.2.6-1.9.6zM75.2 385c-.9 0-1.8-.4-2.4-1.2-1-1.3-.7-3.3.6-4.3l14.7-11.1c1.3-1 3.3-.7 4.3.6 1 1.3.7 3.3-.6 4.3l-14.7 11.1c-.6.4-1.2.6-1.9.6z"/></g></g></g></g><g><path class="st0" d="M119.9 187c-.4.7-.9 1.1-1.6 1.3-.7.2-1.4.1-2-.2l-28.4-15.9c-.6-.3-1-.7-1.2-1.3-.2-.6-.3-1.2-.1-1.8.2-.6.5-1.1 1-1.5.5-.4 1.1-.5 1.8-.4 1.8.1 3.6.3 5.4.4 1.5.1 3.2.3 5 .3 1.8.1 3.4.2 4.9.3-.9-1.2-1.9-2.6-2.9-4s-2-2.8-2.9-4c-1-1.4-2.1-2.9-3.1-4.4-.4-.6-.6-1.1-.5-1.7 0-.6.3-1.2.7-1.6.4-.5 1-.8 1.6-.9.6-.1 1.2 0 1.8.3l28.4 15.9c.7.4 1.1.9 1.3 1.6.2.7.1 1.4-.2 2-.4.7-.9 1.1-1.6 1.3-.7.2-1.4.1-2-.2l-17.9-10c.6.9 1.3 1.8 1.9 2.7.6.9 1.2 1.6 1.6 2.3.6.8 1.1 1.6 1.6 2.3.3.4.5.9.5 1.4s-.1 1-.3 1.5c-.6 1-1.4 1.5-2.6 1.4-.9 0-1.9-.1-2.9-.2-.8 0-1.8-.1-2.9-.2-1.1-.1-2.1-.2-3.2-.3l17.9 10c.7.4 1.1.9 1.3 1.6 0 .6-.1 1.3-.4 2zM135.7 161.7c-.5.6-1.1.9-1.8 1-.7.1-1.4-.1-2-.5l-25.8-19.8c-.6-.5-.9-1-1-1.8-.1-.7.1-1.4.5-2 .5-.6 1-.9 1.8-1 .7-.1 1.4.1 2 .5l25.8 19.8c.6.5.9 1.1 1 1.8.1.8 0 1.4-.5 2zM141.5 153c-.7 0-1.4-.2-1.9-.8l-23.2-22.5c-.5-.5-.8-1.1-.8-1.9s.2-1.4.8-1.9c.5-.5 1.1-.8 1.9-.8.7 0 1.4.2 1.9.8l21.2 20.6 5.9-6.1c.5-.5 1.1-.8 1.9-.8.7 0 1.4.2 1.9.8.5.5.8 1.2.8 1.9s-.2 1.4-.8 1.9l-7.8 8c-.4.5-1.1.8-1.8.8zM169.3 125c.6.4 1.1.9 1.3 1.6.2.7.2 1.4-.2 2-.3.7-.8 1.1-1.5 1.3-.7.2-1.4.2-2.1-.2l-15.1-7.7.1 3.6 6.8 8.9c.5.6.6 1.3.5 2-.1.7-.4 1.3-1 1.8s-1.3.6-2 .5c-.7-.1-1.3-.4-1.8-1L134.7 112c-.5-.6-.6-1.3-.5-2s.4-1.3 1-1.8 1.3-.6 2-.5c.7.1 1.3.4 1.8 1l7.3 9.6-.5-16.7c0-.7.3-1.4.8-1.9s1.1-.8 1.9-.8c.8-.1 1.4.2 1.9.7.5.5.8 1.2.8 1.9l.5 14.5 17.6 9zM191.8 117.3c-1 .2-2.1.1-3.1-.1s-2-.5-2.8-1c-.9-.5-1.7-1.1-2.4-1.9-.7-.8-1.2-1.6-1.7-2.6l-7.5-17.5c-.4-1-.7-2-.7-3-.1-1 0-2.1.3-3 .3-1 .7-1.9 1.2-2.8.6-.9 1.3-1.6 2.1-2.3 1.7-1.3 3.6-2 5.7-2s4 .6 5.7 1.9c.6.4 1 1 1.1 1.7.1.7-.1 1.4-.5 2-.4.6-1 .9-1.8 1-.7.1-1.4-.1-2-.5-.7-.5-1.5-.8-2.4-.8-.9 0-1.7.3-2.5.9-.7.5-1.2 1.3-1.4 2.2-.2.9-.2 1.7.2 2.6l7.5 17.5c.4.9.9 1.5 1.7 1.9.8.4 1.6.6 2.5.5.9-.1 1.7-.5 2.3-1.2.6-.7 1-1.4 1.1-2.3.1-.7.5-1.4 1.1-1.8.6-.5 1.2-.7 2-.6.7.1 1.4.5 1.8 1.1.5.6.6 1.2.5 2-.3 2.1-1.1 4-2.6 5.5-1.4 1.4-3.2 2.3-5.4 2.6zM215.2 109.7c-1.3.3-2.5.4-3.7.2-1.2-.2-2.4-.6-3.4-1.2s-1.9-1.4-2.7-2.4c-.7-1-1.3-2.1-1.6-3.4l-4.6-18.5c-.3-1.3-.4-2.5-.2-3.7.2-1.2.6-2.4 1.2-3.4s1.4-1.9 2.4-2.7c1-.7 2.1-1.3 3.4-1.6 1.3-.3 2.5-.4 3.7-.2 1.2.2 2.4.6 3.4 1.2s1.9 1.4 2.7 2.4c.7 1 1.3 2.1 1.6 3.4l4.6 18.5c.3 1.3.4 2.5.2 3.7-.2 1.2-.6 2.4-1.2 3.4s-1.4 1.9-2.4 2.7c-1 .7-2.1 1.2-3.4 1.6zm-7.8-31.6c-1.1.3-1.9.9-2.5 1.8-.6 1-.7 2-.5 3.1l4.6 18.5c.3 1.1.9 1.9 1.8 2.5 1 .6 2 .7 3.1.5 1.1-.3 1.9-.9 2.5-1.8.6-1 .7-2 .5-3.1l-4.6-18.5c-.3-1.1-.9-1.9-1.8-2.5-1-.6-2.1-.8-3.1-.5zM248.8 105.1c-.6.2-1.2.2-1.8-.1-.6-.2-1-.6-1.3-1.2-1.3-2.3-2.6-4.7-4-7.1-1.2-2.1-2.5-4.3-3.9-6.8s-2.8-4.9-4.1-7.3l1.4 20.7c0 .7-.2 1.4-.7 2-.5.6-1.1.9-1.8.9s-1.4-.2-2-.7c-.6-.5-.9-1.1-.9-1.8l-2.1-32.4c0-.6.1-1.2.4-1.7.3-.5.8-.9 1.4-1.1.6-.2 1.2-.2 1.8.1.6.2 1 .6 1.3 1.2 1.3 2.3 2.6 4.7 4 7.1 1.2 2.1 2.5 4.3 3.9 6.8s2.8 4.9 4.1 7.3l-1.4-20.7c0-.7.2-1.4.7-2 .5-.6 1.1-.9 1.8-.9.7-.1 1.4.2 2 .7.6.5.9 1.1.9 1.8l2.1 32.4c0 .6-.1 1.2-.5 1.7-.3.6-.7.9-1.3 1.1zM275.9 107.5c-.6.1-1.2-.1-1.8-.4-.5-.3-.9-.8-1.1-1.4-.8-2.5-1.7-5.1-2.6-7.7-.8-2.2-1.6-4.7-2.6-7.4-.9-2.7-1.8-5.3-2.7-7.9l-2.5 20.6c-.1.7-.4 1.3-1 1.8s-1.2.6-2 .5c-.7-.1-1.3-.4-1.8-1s-.6-1.2-.5-2l3.9-32.3c.1-.6.3-1.2.8-1.6.4-.4 1-.7 1.6-.8.6-.1 1.2.1 1.7.4.5.3.9.8 1.1 1.4.8 2.5 1.7 5.1 2.6 7.7.8 2.2 1.6 4.7 2.5 7.4.9 2.7 1.8 5.3 2.7 7.9l2.5-20.6c.1-.7.4-1.3 1-1.8s1.2-.6 2-.5 1.3.4 1.8 1 .6 1.2.5 2l-3.9 32.3c-.1.6-.3 1.2-.8 1.6-.3.4-.8.7-1.4.8zM295.3 74.2c.6-.4 1.3-.4 2.1-.2l10.7 3.2c.7.2 1.3.6 1.6 1.3.4.6.4 1.3.2 2s-.6 1.3-1.3 1.6c-.6.4-1.3.4-2.1.2l-8.2-2.4-2.9 9.7 7.1 2.1c.7.2 1.2.6 1.6 1.3.4.7.4 1.3.2 2s-.6 1.3-1.3 1.6c-.7.4-1.3.4-2.1.2l-7.1-2.1-3.2 10.7 8.2 2.4c.7.2 1.3.6 1.6 1.3.4.7.4 1.3.2 2s-.6 1.3-1.3 1.6c-.7.4-1.3.4-2 .2l-10.7-3.2c-.7-.2-1.2-.6-1.6-1.3-.4-.6-.4-1.3-.2-2.1l9.1-30.7c.4-.5.8-1 1.4-1.4zM310.2 118.2c-.8-.7-1.5-1.4-2-2.3-.5-.9-.9-1.8-1.1-2.8-.2-1-.3-2-.2-3 .1-1 .4-2 .9-3l8.1-17.2c.4-.9 1-1.8 1.8-2.5.7-.8 1.5-1.4 2.4-1.8.9-.5 1.9-.8 2.9-.9 1-.2 2-.1 3.1.1 2.1.4 3.9 1.4 5.3 2.9 1.4 1.6 2.2 3.4 2.4 5.6.1.7-.1 1.4-.6 2-.5.6-1.1.9-1.9 1-.7.1-1.4-.1-1.9-.6-.6-.5-.9-1.1-1-1.9-.1-.9-.4-1.7-1-2.4s-1.4-1.1-2.3-1.2c-.9-.2-1.7 0-2.5.4s-1.4 1-1.8 1.8l-8.1 17.2c-.4.8-.5 1.7-.3 2.6.2.9.6 1.6 1.3 2.2.7.6 1.5.9 2.4.9.9 0 1.7-.2 2.5-.7.6-.4 1.3-.5 2.1-.4.7.1 1.3.5 1.7 1.1.4.6.5 1.3.4 2.1-.1.7-.5 1.3-1.1 1.7-1.8 1.2-3.7 1.8-5.8 1.7-2.2-.5-4.1-1.2-5.7-2.6zM357.8 103c.6.4 1 1 1.1 1.7.1.7 0 1.4-.4 2-.4.6-1 1-1.7 1.1-.7.1-1.4 0-2-.4l-3.8-2.6-16.6 24.5c-.4.6-1 1-1.7 1.1-.7.1-1.4 0-2-.4-.6-.4-1-1-1.1-1.7-.1-.7 0-1.4.4-2l16.6-24.5-3.8-2.6c-.6-.4-1-1-1.1-1.7-.1-.7 0-1.4.4-2 .4-.6 1-1 1.7-1.1.7-.1 1.4 0 2 .4l12 8.2zM344.3 140.6c-.6-.5-.9-1.1-.9-1.8-.1-.7.2-1.4.7-2l21.3-24.5c.5-.6 1.1-.9 1.8-.9.7-.1 1.4.2 2 .7.6.5.9 1.1.9 1.8.1.7-.2 1.4-.7 2l-21.3 24.5c-.5.6-1.1.9-1.8.9-.8 0-1.5-.2-2-.7zM357.2 153.3c-.9-1-1.5-2-1.9-3.2-.4-1.2-.6-2.4-.5-3.6.1-1.2.3-2.4.9-3.5.5-1.1 1.3-2.1 2.2-3l14.1-12.8c1-.9 2-1.5 3.2-1.9 1.2-.4 2.4-.6 3.6-.5 1.2.1 2.4.3 3.5.9 1.1.5 2.1 1.3 3 2.2.9 1 1.5 2 1.9 3.2.4 1.2.6 2.4.5 3.6-.1 1.2-.3 2.4-.9 3.5-.5 1.1-1.3 2.1-2.2 3L370.5 154c-1 .9-2 1.5-3.2 1.9-1.2.4-2.4.6-3.6.5-1.2-.1-2.4-.3-3.5-.9-1.1-.5-2.1-1.2-3-2.2zm24.1-21.8c-.8-.8-1.7-1.3-2.8-1.3-1.1-.1-2.1.3-2.9 1L361.5 144c-.8.8-1.3 1.7-1.3 2.8s.3 2.1 1 2.9c.8.8 1.7 1.3 2.8 1.3 1.1.1 2.1-.3 2.9-1l14.1-12.8c.8-.8 1.3-1.7 1.3-2.8s-.2-2.1-1-2.9zM377 180.9c-.5-.5-.7-1-.8-1.6-.1-.6.1-1.2.4-1.7 1.4-2.2 2.9-4.5 4.4-6.9 1.3-2 2.7-4.2 4.2-6.6 1.5-2.4 3-4.8 4.5-7L372.1 168c-.6.4-1.3.5-2 .3s-1.3-.6-1.7-1.2c-.4-.6-.5-1.3-.3-2s.6-1.3 1.2-1.7l27.6-17.1c.5-.3 1.1-.5 1.7-.4.6.1 1.1.3 1.6.8s.7 1 .8 1.6c0 .6-.1 1.2-.4 1.7-1.4 2.2-2.9 4.5-4.4 6.9-1.3 2-2.7 4.2-4.2 6.6-1.5 2.4-3 4.8-4.5 7.1l17.6-10.9c.6-.4 1.3-.5 2-.3s1.3.6 1.7 1.2c.4.6.5 1.3.3 2s-.6 1.3-1.2 1.7l-27.6 17.1c-.5.3-1.1.5-1.7.4-.6-.2-1.2-.5-1.6-.9z"/></g><g><path class="st0" d="M250 453.4c-27.4 0-54-5.4-79-16-24.2-10.2-45.9-24.9-64.5-43.5S73.2 353.5 63 329.4c-10.6-25-16-51.6-16-79s5.4-54 16-79c10.2-24.2 24.9-45.9 43.5-64.5s40.4-33.3 64.5-43.5c25-10.6 51.6-16 79-16s54 5.4 79 16c24.2 10.2 45.9 24.9 64.5 43.5s33.3 40.4 43.5 64.5c10.6 25 16 51.6 16 79s-5.4 54-16 79c-10.2 24.2-24.9 45.9-43.5 64.5s-40.4 33.3-64.5 43.5c-25 10.7-51.6 16-79 16zm0-400.7c-26.7 0-52.6 5.2-77 15.5-23.5 10-44.7 24.2-62.8 42.4-18.2 18.2-32.4 39.3-42.4 62.8-10.3 24.4-15.5 50.3-15.5 77 0 26.7 5.2 52.6 15.5 77 10 23.5 24.2 44.7 42.4 62.8 18.2 18.2 39.3 32.4 62.8 42.4 24.4 10.3 50.3 15.5 77 15.5 26.7 0 52.6-5.2 77-15.5 23.5-10 44.7-24.2 62.8-42.4 18.2-18.2 32.4-39.3 42.4-62.8 10.3-24.4 15.5-50.3 15.5-77 0-26.7-5.2-52.6-15.5-77-10-23.5-24.2-44.7-42.4-62.8-18.2-18.2-39.3-32.4-62.8-42.4-24.4-10.3-50.3-15.5-77-15.5z"/></g><circle class="st2" cx="250" cy="249.4" r="182.7"/><text transform="rotate(17.408 -1283.783 831.509)"><tspan x="0" y="0" class="st0 st3 st4">g</tspan><tspan x="13" y="-.1" class="st0 st3 st4" rotate="-4">e</tspan><tspan x="25.5" y="-1" class="st0 st3 st4" rotate="-8">e</tspan><tspan x="37.8" y="-2.8" class="st0 st3 st4" rotate="-11.9">k</tspan><tspan x="50.4" y="-5.6" class="st0 st3 st4" rotate="-15.8">a</tspan><tspan x="61.7" y="-8.8" class="st0 st3 st4" rotate="-19.2">t</tspan><tspan x="71.4" y="-12.3" class="st0 st3 st4" rotate="-22.4">r</tspan><tspan x="81.1" y="-16.3" class="st0 st3 st4" rotate="-26">o</tspan><tspan x="92.5" y="-21.9" class="st0 st3 st4" rotate="-30.1">n</tspan><tspan x="103.9" y="-28.6" class="st0 st3 st4" rotate="-34">s</tspan></text></g></svg>